<svg width="1447" height="485" viewBox="0 0 1447 485" fill="none" xmlns="http://www.w3.org/2000/svg">
<g filter="url(#filter0_i_48_177)">
<path d="M110 28.6C160.6 28.6 192.28 59.4 194.92 110C198 168.96 164.56 206.8 100.32 198.44C100.32 198.44 142.12 326.04 83.16 332.2C40.04 337.04 26.4 301.84 16.72 273.24C0 222.2 4.84 113.08 16.72 86.24C33.44 47.08 65.12 28.6 110 28.6ZM115.72 147.84C131.56 147.84 144.32 135.08 144.32 119.24C144.32 103.84 131.56 91.08 115.72 91.08C99.88 91.08 87.12 103.84 87.12 119.24C87.12 135.08 99.88 147.84 115.72 147.84ZM334.197 178.2C368.517 211.64 399.317 282.04 389.637 313.72C382.597 336.16 345.197 337.48 330.237 322.52C319.237 311.08 297.677 273.68 284.477 249.92C287.117 286.44 283.157 325.16 258.077 331.32C215.837 341 200.877 301.84 191.637 273.24C174.917 222.2 179.757 113.08 191.637 86.24C208.357 47.08 240.037 28.6 284.917 28.6C335.517 28.6 366.317 59.84 369.837 110C371.597 140.8 361.037 166.32 334.197 178.2ZM290.637 91.08C274.797 91.08 262.037 103.84 262.037 119.24C262.037 135.08 274.797 147.84 290.637 147.84C306.477 147.84 318.797 135.08 318.797 119.24C318.797 103.84 306.477 91.08 290.637 91.08ZM418.736 28.6C443.376 28.6 454.816 45.76 457.896 65.56C462.296 91.52 464.056 264.44 458.776 290.4C453.936 314.16 441.616 332.2 419.176 332.2C397.176 332.2 383.536 314.16 380.456 287.76C375.616 250.8 376.496 92.84 380.456 66.44C383.536 44.88 399.816 28.6 418.736 28.6ZM663.761 28.6C682.681 28.6 701.601 40.04 703.801 66.44C706.441 92.84 706.881 250.8 703.801 287.76C701.601 318.12 686.201 332.2 663.761 332.2C655.401 332.2 647.921 329.56 642.201 325.16C641.761 324.72 641.321 324.28 640.881 323.84C639.561 322.52 638.241 321.2 636.921 319.44C616.681 295.24 581.041 223.52 578.401 218.68C569.601 203.72 555.521 205.48 555.081 220C554.641 253 553.761 280.72 552.441 290.4C548.921 314.6 536.161 332.2 514.161 332.2C491.721 332.2 476.761 318.12 474.121 287.76C471.041 250.8 471.481 92.84 474.121 66.44C476.761 40.04 495.241 28.6 514.161 28.6C520.321 28.6 525.601 29.92 530.001 31.68C558.161 40.92 577.521 114.84 599.521 139.48C607.881 149.16 621.961 147.84 622.401 136.84C622.401 136.4 622.401 136.4 622.401 135.96C622.401 102.96 623.281 74.8 624.601 65.56C627.681 45.76 639.561 28.6 663.761 28.6ZM892.777 255.2C918.297 249.04 926.217 307.12 898.937 323.4C880.897 333.96 825.897 334.84 796.417 326.48C730.417 307.56 701.817 250.8 701.817 186.12C701.817 112.64 735.697 62.04 795.097 38.28C825.017 25.96 882.657 26.84 902.897 40.48C922.697 54.12 920.057 110.44 890.577 106.92C860.657 103.84 841.737 100.76 822.817 117.04C788.497 146.08 786.737 210.32 821.497 243.76C837.337 259.16 864.617 261.8 892.777 255.2ZM1068.23 234.52C1097.71 242 1096.39 322.96 1067.79 328.68C1044.47 333.08 960.431 332.64 950.751 330.88C928.751 326.48 909.391 317.24 909.391 286C909.391 249.04 909.391 92.84 909.391 66.44C909.391 40.04 934.031 28.6 952.951 28.6C971.871 28.6 1055.47 25.96 1070.87 33.88C1094.63 46.2 1093.31 119.68 1068.23 124.08C1048.87 127.6 1008.83 123.2 1000.91 123.2C992.551 123.2 993.431 144.32 1000.03 144.32C1007.07 144.32 1025.11 142.12 1032.15 144.32C1053.71 151.8 1052.83 209 1031.71 209.88C1021.15 210.32 1004.43 209.88 997.831 209.88C990.791 209.88 989.471 232.32 998.711 232.32C1007.95 232.32 1059.87 232.32 1068.23 234.52ZM1223.81 119.24C1188.61 107.8 1174.53 117.04 1172.33 134.2C1171.01 143 1175.41 153.12 1194.33 158.4C1204.45 161.48 1225.57 166.32 1240.53 179.52C1270.89 205.92 1275.29 291.72 1220.73 319.44C1185.97 337.48 1112.49 336.16 1089.61 313.28C1064.97 289.08 1082.57 245.96 1111.61 252.12C1163.53 265.32 1159.13 218.68 1120.41 201.96C1079.05 184.36 1078.17 139.04 1078.17 117.04C1078.17 94.6 1094.01 50.16 1136.69 37.4C1175.85 25.52 1229.97 27.28 1251.53 48.4C1273.53 69.52 1264.73 132 1223.81 119.24ZM1394.86 119.24C1359.66 107.8 1345.58 117.04 1343.38 134.2C1342.06 143 1346.46 153.12 1365.38 158.4C1375.5 161.48 1396.62 166.32 1411.58 179.52C1441.94 205.92 1446.34 291.72 1391.78 319.44C1357.02 337.48 1283.54 336.16 1260.66 313.28C1236.02 289.08 1253.62 245.96 1282.66 252.12C1334.58 265.32 1330.18 218.68 1291.46 201.96C1250.1 184.36 1249.22 139.04 1249.22 117.04C1249.22 94.6 1265.06 50.16 1307.74 37.4C1346.9 25.52 1401.02 27.28 1422.58 48.4C1444.58 69.52 1435.78 132 1394.86 119.24Z" fill="white"/>
</g>
<path d="M677.6 425.6C677.6 425.467 677.467 425.2 677.2 424.8C676.933 424.533 676.8 424.333 676.8 424.2C676.8 424.067 676.933 423.733 677.2 423.2C677.6 422.667 677.867 422.267 678 422C678.133 421.867 678.6 421.333 679.4 420.4C680.333 419.6 680.867 419.2 681 419.2C680.867 419.2 680.867 419.2 681 419.2C681 419.333 681.2 419.6 681.6 420C681.867 419.6 682.067 419.2 682.2 418.8C682.333 418.4 682.467 417.933 682.6 417.4C683.133 417.267 683.8 416.867 684.6 416.2C685 415.667 685.667 414.8 686.6 413.6C687.533 412.4 689.067 410.533 691.2 408C692 407.867 692.867 406.6 693.8 404.2C693.8 404.067 693.8 403.867 693.8 403.6C693.8 403.333 693.867 403 694 402.6C694.133 402.733 694.333 403.2 694.6 404C695.4 403.733 695.867 403.333 696 402.8C697.733 401.333 699.6 398.733 701.6 395C703.067 393.533 704.067 392.733 704.6 392.6C704.867 391 704.867 390.2 704.6 390.2C705 390.067 705.333 389.6 705.6 388.8C706.133 388.8 707.267 387.6 709 385.2L709.8 384.2C710.733 383.8 711.933 382.667 713.4 380.8C713.667 380.533 713.933 380.267 714.2 380C714.467 379.733 714.867 379.467 715.4 379.2C715.533 378.933 715.467 378.533 715.2 378C716 378 716.267 378.133 716 378.4H716.2C717 378.4 717.467 377.467 717.6 375.6C717.467 375.6 717.467 375.533 717.6 375.4V375.6C717.6 375.6 717.733 375.6 718 375.6C717.867 375.6 718.267 375.133 719.2 374.2C719.467 373.933 719.867 373.533 720.4 373C720.933 372.467 721.267 371.867 721.4 371.2V370.4C721.533 370.133 721.667 369.867 721.8 369.6C722.067 369.333 722.267 369.067 722.4 368.8C723.067 367.467 723.533 366.8 723.8 366.8C723.667 366.667 723.533 366.467 723.4 366.2C723.267 365.933 723.133 365.667 723 365.4C721.4 367.267 720.6 368.4 720.6 368.8C720.6 369.2 720.533 369.6 720.4 370C720.133 370 719.8 369.933 719.4 369.8C719.133 369.533 718.867 369.4 718.6 369.4C716.867 369.4 716.467 370 717.4 371.2L716.4 371.6C715.067 373.333 713.8 374.867 712.6 376.2C711.4 377.4 710.267 378.533 709.2 379.6L704.8 383.2C704.667 383.333 704.6 383.467 704.6 383.6C704.6 383.733 704.067 384.133 703 384.8C702.467 385.333 701.867 386 701.2 386.8C700.667 387.467 700.067 388.267 699.4 389.2L694.8 394.2C694.267 394.733 693.533 395.333 692.6 396C691.667 396.8 690.6 397.733 689.4 398.8L687.6 400.8C687.6 400.533 687.467 400.267 687.2 400C687.333 399.333 687.733 398.533 688.4 397.6C689.2 396.667 690.467 395.267 692.2 393.4L701.6 383L706.4 379C707.733 377.267 710.067 374.533 713.4 370.8C714.467 370.267 715.467 369.6 716.4 368.8L716.8 368C719.2 366.133 721.2 364.133 722.8 362L724.6 361C724.867 360.6 725.333 360.133 726 359.6C726.8 358.933 728 358.067 729.6 357C733.067 353.667 734.733 351.6 734.6 350.8C736.2 350 736.933 348.6 736.8 346.6L737.2 348C738 348 738.533 347.533 738.8 346.6C739.067 345.667 739.267 344.8 739.4 344L743.8 336L744.6 333C744.867 332.867 745.067 332.467 745.2 331.8C745.333 331.133 746.067 329.8 747.4 327.8V327.2C747.4 326.8 747.4 326.4 747.4 326C747.533 325.6 747.667 325.2 747.8 324.8C748.067 324.667 748.467 324.2 749 323.4C749.267 323.133 749.4 322.6 749.4 321.8L749 320.4V319.4C749 319.4 749.4 318.933 750.2 318C750.467 317.733 750.467 317.467 750.2 317.2L752 314V313.2C752 312.933 752 312.533 752 312C752 311.333 751.933 310.6 751.8 309.8L752.2 309.2V306.4C752.6 304.933 752.8 304.467 752.8 305C752.8 303.667 752.733 302.8 752.6 302.4L749.6 296.4C749.067 295.6 748.267 295.2 747.2 295.2L746.4 295.4C746.4 295.133 746.467 294.933 746.6 294.8C746.2 294.133 745.733 293.8 745.2 293.8H744.8C744.8 293.933 744.733 294 744.6 294H744.4C744.533 294 744.6 294 744.6 294C744.6 293.867 743.933 293.6 742.6 293.2C741.8 292.933 741.067 292.8 740.4 292.8C740.267 292.8 740.267 292.867 740.4 293C740.4 293.267 740.333 293.4 740.2 293.4C739.933 293.4 739.733 293.333 739.6 293.2C739.6 293.067 739.533 293 739.4 293C739.133 293 738.867 293.133 738.6 293.4C738.467 293.667 738.333 293.8 738.2 293.8C737.933 293.8 737.467 293.733 736.8 293.6C736.133 293.467 735.667 293.4 735.4 293.4L731 294L726.8 294.4C726 294.933 725.4 295.2 725 295.2C724.733 295.2 723.867 295.467 722.4 296C721.2 296.533 720.333 296.8 719.8 296.8C719.533 296.8 718.2 297.2 715.8 298L715.2 298.8C707.6 301.467 700.867 304.467 695 307.8C694.467 307.933 693.867 308.2 693.2 308.6C692.667 308.867 691.933 309.133 691 309.4L677.2 316C674.133 317.867 672.867 318.8 673.4 318.8H673C673 318.667 672.867 318.6 672.6 318.6C672.867 318.6 672.533 318.8 671.6 319.2C670.667 319.6 669.6 320.467 668.4 321.8C667.067 321.8 666.333 322.067 666.2 322.6C665.933 322.6 665.933 322.467 666.2 322.2C666.2 322.067 666.133 322 666 322C665.867 322 665.267 322.533 664.2 323.6C663.267 324.533 662.733 325 662.6 325C662.467 325 662.333 324.933 662.2 324.8H662C662 324.8 661.133 325.133 659.4 325.8C659 325.933 658.8 326.267 658.8 326.8L654.6 329.2C654.733 329.2 653.867 329.8 652 331L647 333.4L640.2 337C640.067 337 640 337.2 640 337.6C640 337.467 639.867 337.4 639.6 337.4C638.667 337.4 637.667 337.867 636.6 338.8C636.333 338.8 636.067 338.867 635.8 339C634.867 339.533 633.6 340.333 632 341.4C631.867 341.4 630.933 342.067 629.2 343.4C628.933 343.133 628.6 343 628.2 343C628.067 343 627.8 343.133 627.4 343.4C627.133 343.667 626.933 343.8 626.8 343.8C626.533 343.8 626.4 343.733 626.4 343.6C626.533 343.467 626.533 343.4 626.4 343.4C625.467 343.4 624.6 344.2 623.8 345.8C622.733 345.8 621.667 346.2 620.6 347C619.667 347.667 619.067 348 618.8 348C618.667 348 618.067 348.4 617 349.2C616.467 349.333 615.8 349.533 615 349.8C614.2 350.067 613.267 350.4 612.2 350.8C611.933 350.933 611.4 351.333 610.6 352C609.8 352.667 609.267 353 609 353H608.8C608.933 352.867 608.867 352.8 608.6 352.8C608.467 352.8 608.267 352.933 608 353.2C607.867 353.467 607.733 353.6 607.6 353.6C607.333 353.6 606.067 353.933 603.8 354.6L603.2 354.2C601.867 355.133 601.133 355.6 601 355.6C600.867 355.6 600.733 355.533 600.6 355.4C600.467 355.267 600.267 355.2 600 355.2C599.733 355.2 599.267 355.4 598.6 355.8C598.067 356.2 597.667 356.4 597.4 356.4H597.2C597.2 356.267 597.133 356.2 597 356.2C596.867 356.2 596.8 356.333 596.8 356.6C596.933 356.733 596.867 356.8 596.6 356.8C596.467 356.8 596.267 356.733 596 356.6C595.867 356.467 595.733 356.4 595.6 356.4C595.333 356.4 595.2 356.533 595.2 356.8C595.333 356.933 595.333 357 595.2 357C594.933 357 594.867 356.933 595 356.8H594.8C594 356.8 593.733 356.867 594 357L593.6 357.4C593.067 357.4 592.333 357.333 591.4 357.2C590.6 357.067 590.133 357 590 357C589.867 357 589.733 357.133 589.6 357.4C589.467 357.533 589.333 357.6 589.2 357.6C588.933 357.6 588.133 357.4 586.8 357C585.467 356.6 584.733 356.4 584.6 356.4C584.733 356.4 584.4 356.6 583.6 357L580.2 355.2C579.533 354.8 579.2 354.533 579.2 354.4V354.6H579C578.6 354.6 577.333 353.133 575.2 350.2V348.8C575.333 348.667 575.4 348.467 575.4 348.2C575.4 346.6 575.8 344.4 576.6 341.6C576.333 341.2 577.2 339.333 579.2 336C579.867 335.467 580.533 334.867 581.2 334.2C581.867 333.4 582.533 332.467 583.2 331.4C584.667 330.067 585.867 328.8 586.8 327.6C587.2 327.2 587.933 326.8 589 326.4L589.4 325.6C590.067 324.933 590.933 324.2 592 323.4C593.2 322.467 594.533 321.467 596 320.4C596.267 320.267 596.667 319.933 597.2 319.4C597.733 318.867 598.467 318.467 599.4 318.2C600.333 316.867 601.067 316.2 601.6 316.2H601.8C601.8 316.333 601.867 316.4 602 316.4C602 316.4 602.067 316.267 602.2 316C602.467 315.733 602.933 315.6 603.6 315.6L604.2 315.2C604.467 315.2 604.6 315.133 604.6 315H604.8L606.8 313.6V315L603.2 317.6L599.4 319.6L594.4 323.6C593.733 324.533 592.467 325.533 590.6 326.6C590.333 327.533 589.133 328.8 587 330.4C587 330.533 587 330.733 587 331C587 331.267 586.933 331.533 586.8 331.8C586.8 331.8 586.733 331.8 586.6 331.8C586.6 331.8 586.533 331.733 586.4 331.6C585.867 332.133 585.467 332.933 585.2 334C584.933 333.733 584.733 333.6 584.6 333.6C584.467 333.867 584.267 334.267 584 334.8C583.867 335.333 583.533 335.933 583 336.6L581.6 337.2V337.6C581.6 338.8 580.867 339.8 579.4 340.6C579.4 340.733 579.4 340.8 579.4 340.8C579.533 340.8 579.6 340.867 579.6 341C579.6 341.533 579.333 342.267 578.8 343.2C578.267 344 578 344.533 578 344.8C578 344.933 578.067 345.2 578.2 345.6C578.467 346 578.6 346.333 578.6 346.6C578.6 346.733 578.6 346.933 578.6 347.2C578.6 347.467 578.533 347.8 578.4 348.2C578.533 348.6 578.8 349 579.2 349.4C579.6 349.667 580.067 349.933 580.6 350.2C581.4 350.6 581.867 350.867 582 351C582 351 582.067 351 582.2 351C582.333 351 582.4 351.133 582.4 351.4C582.4 351.667 582.467 351.8 582.6 351.8C582.867 351.8 583.067 351.667 583.2 351.4C583.333 351 583.533 350.8 583.8 350.8C583.933 350.8 584 350.867 584 351H584.4C584.667 351 584.8 350.8 584.8 350.4C584.933 350.533 585.067 350.667 585.2 350.8C585.333 350.933 585.533 351.133 585.8 351.4H586.2C586.6 351.4 587 351.333 587.4 351.2C588.067 350.933 588.667 350.933 589.2 351.2L592.4 351.8C592.667 351.8 593.133 351.6 593.8 351.2C594.467 350.8 595.2 350.6 596 350.6H596.8C596.933 350.733 597.2 350.8 597.6 350.8L598 350.4C598.4 350.267 598.933 350.067 599.6 349.8C600.267 349.4 600.667 349.2 600.8 349.2C600.933 349.2 601.133 349.267 601.4 349.4C601.667 349.533 601.867 349.6 602 349.6C601.6 349.6 601.933 349.4 603 349C604.2 348.467 605.8 348 607.8 347.6C607.533 347.333 607.6 347.2 608 347.2H608.6C608.733 347.333 609 347.4 609.4 347.4C609.533 347.4 609.6 347.333 609.6 347.2C609.6 347.067 609.667 347 609.8 347H610.2C610.067 347.133 610.133 347.2 610.4 347.2C610.533 347.2 610.733 347.067 611 346.8C611.267 346.4 611.467 346.2 611.6 346.2C611.733 346.2 611.8 346.267 611.8 346.4H612.2C612.333 346.4 612.467 346.333 612.6 346.2C612.733 345.933 612.867 345.8 613 345.8H613.4C613.533 345.933 613.667 346 613.8 346C614.467 345.733 615.333 345.333 616.4 344.8C617.467 344.133 618.733 343.4 620.2 342.6C620.467 342.733 620.867 342.733 621.4 342.6C621.933 342.2 622.667 341.8 623.6 341.4C624.533 341 626.2 340.333 628.6 339.4C629.267 339 630.333 338.267 631.8 337.2C633.267 336.133 634.133 335.6 634.4 335.6C634.533 335.6 634.533 335.667 634.4 335.8C634.267 335.933 634.333 336 634.6 336C635.933 336 637.133 335.267 638.2 333.8C638.467 333.667 638.933 333.333 639.6 332.8C640.267 332.267 640.733 332 641 332C641.133 332 641.2 332.067 641.2 332.2C641.333 332.333 641.467 332.4 641.6 332.4C641.733 332.4 642.133 332.133 642.8 331.6C643.467 331.067 643.867 330.8 644 330.8H644.2C644.2 330.933 644.267 331 644.4 331C645.2 331 646.667 330 648.8 328C649.733 327.067 650.133 326.6 650 326.6C650.267 326.6 650.333 326.667 650.2 326.8H650.6C651.267 326.8 651.867 326.6 652.4 326.2C656.4 323.8 658.333 322.6 658.2 322.6H658.6C658.6 322.733 658.667 322.8 658.8 322.8C658.267 322.8 660.067 321.733 664.2 319.6C664.733 319.6 665.667 319.067 667 318C667.133 318 667.333 317.933 667.6 317.8C667.867 317.667 668.6 317.267 669.8 316.6C671.133 315.8 671.8 315.267 671.8 315H672.8C672.533 315 672.533 315.133 672.8 315.4C673.733 314.733 674.867 313.933 676.2 313C677.667 312.067 679.267 311.067 681 310H681.2C681.333 310 681.933 309.733 683 309.2L685.4 308C685.8 307.733 686.133 307.2 686.4 306.4L687 307C687.267 306.733 687.8 306.4 688.6 306C689.4 305.467 690.733 304.8 692.6 304L693.6 303C694.133 302.867 694.667 302.667 695.2 302.4C695.867 302.133 696.533 301.867 697.2 301.6L700.8 298.8C701.467 298.667 702.333 298.333 703.4 297.8C704.6 297.267 706.333 296.4 708.6 295.2C709.133 295.2 709.867 295 710.8 294.6C713.067 293.267 714.133 292.6 714 292.6C714.133 292.6 714.2 292.667 714.2 292.8H714.4C714.8 292.8 716.2 292.333 718.6 291.4C721.267 290.333 722.733 289.6 723 289.2C723.267 289.467 723.6 289.6 724 289.6C724.133 289.6 724.267 289.533 724.4 289.4C724.667 289.133 724.867 289 725 289C725.133 289 725.333 289.133 725.6 289.4C725.867 289.4 726.067 289.133 726.2 288.6C726.333 288.733 726.667 288.8 727.2 288.8C727.467 288.8 728 288.6 728.8 288.2C729.733 287.667 730.267 287.4 730.4 287.4H731.4C731.667 287.533 731.933 287.6 732.2 287.6C734.333 287.6 735.933 287.067 737 286C737.133 286.133 737.533 286.2 738.2 286.2C738.333 286.2 738.667 286.2 739.2 286.2C739.867 286.2 740.8 286.267 742 286.4C743.333 286.533 744.267 286.6 744.8 286.6C745.467 286.6 745.867 286.6 746 286.6C745.6 286.6 745.8 286.467 746.6 286.2C746.467 286.333 746.4 286.533 746.4 286.8C746.4 287.333 746.8 287.8 747.6 288.2C748.4 287 749.067 286.4 749.6 286.4C750.4 286.4 752.467 287.133 755.8 288.6C755.8 288.6 755.867 288.8 756 289.2C756.267 289.467 756.533 289.6 756.8 289.6H757C757 289.467 757.067 289.4 757.2 289.4C758 289.4 758.667 290.667 759.2 293.2C759.733 293.467 760.2 293.6 760.6 293.6C760.733 293.867 760.933 294.267 761.2 294.8C761.6 295.333 762.067 295.933 762.6 296.6C762.6 296.733 762.6 297 762.6 297.4C762.733 297.667 762.867 298 763 298.4C763.267 299.333 763.467 300.133 763.6 300.8C763.733 301.467 763.867 302.133 764 302.8V305C764 305.133 764.067 305.4 764.2 305.8C764.467 306.067 764.6 306.267 764.6 306.4C764.6 306.533 764.467 306.8 764.2 307.2C764.067 307.467 764 307.667 764 307.8C764.133 308.2 764.2 309.067 764.2 310.4L763.6 311.2C763.467 312 763.267 312.933 763 314C762.733 315.067 762.6 316.133 762.6 317.2C761.8 317.467 761.333 317.867 761.2 318.4C760.933 319.733 760.6 320.467 760.2 320.6C759.8 320.6 759.667 321.533 759.8 323.4C759 324.2 758.267 325.2 757.6 326.4C757.467 327.6 756.867 329.2 755.8 331.2L756 332L754.4 333.2C754.4 333.2 754.533 333.8 754.8 335C754.8 335.133 755 335.2 755.4 335.2C755.933 335.2 756.4 334.667 756.8 333.6C756.267 333.6 757.133 333.267 759.4 332.6C760.467 332.333 760.933 332.133 760.8 332C760.8 331.733 761.267 331.4 762.2 331C763.133 330.333 764 329.733 764.8 329.2C765.6 328.533 766.333 328 767 327.6C767.4 327.6 767.933 327.4 768.6 327C769.267 326.467 770.2 325.867 771.4 325.2L771.8 324.8L774.2 323.2C774.6 323.067 775.067 322.933 775.6 322.8C776.267 322.533 777 322.2 777.8 321.8C779.133 320.733 780.133 319.933 780.8 319.4C781.467 318.867 781.8 318.6 781.8 318.6C781.933 318.6 782 318.667 782 318.8H782.4C782 318.8 783.133 318.067 785.8 316.6C787.533 316.067 790.133 314.733 793.6 312.6C793.467 313 793.533 313.2 793.8 313.2C794.467 313.2 795.733 312.667 797.6 311.6C798.667 310.933 799.467 310.733 800 311C800.133 311 800.267 310.933 800.4 310.8C800.533 310.667 800.867 310.667 801.4 310.8L803.6 309C803.6 309.267 803.733 309.4 804 309.4H804.8C805.467 309.4 806.067 309.2 806.6 308.8C807.267 308.4 807.867 308.133 808.4 308H809C809.133 308.133 809.333 308.2 809.6 308.2H815.8C815.933 308.2 816.067 308.133 816.2 308C816.467 307.733 816.667 307.6 816.8 307.6C816.933 307.6 816.933 307.733 816.8 308C816.8 308.133 816.933 308.2 817.2 308.2L819.4 307.6C819.933 307.6 821.733 308.667 824.8 310.8L825.4 310.4L827.2 313.2C828 313.467 828.467 313.6 828.6 313.6V315C828.733 315.4 828.8 315.8 828.8 316.2C828.8 315.933 828.333 316.467 827.4 317.8V319.2C827.267 319.333 827.133 319.467 827 319.6C826.867 319.733 826.733 319.933 826.6 320.2C826.6 320.733 826.6 321.333 826.6 322C826.6 322.667 826.533 323.467 826.4 324.4L824.2 330L819 338.2C818.733 338.467 818.333 338.867 817.8 339.4C817.4 339.8 817.333 340.4 817.6 341.2C816.4 341.733 815.267 342.867 814.2 344.6L814.4 346.8L815 346.2C815.267 345.933 815.667 345.667 816.2 345.4C816.867 345 817.533 344.533 818.2 344C818.333 343.733 818.733 343.267 819.4 342.6L825.2 339C827.467 337.8 828.333 337.2 827.8 337.2H828.2C828.2 337.333 828.267 337.4 828.4 337.4C828.533 337.4 828.733 337.267 829 337C829.4 336.733 829.667 336.6 829.8 336.6C829.933 336.6 830 336.667 830 336.8H830.4C830.533 336.8 830.667 336.733 830.8 336.6C831.067 336.467 831.267 336.4 831.4 336.4C831.533 336.4 832.467 336.067 834.2 335.4C835.933 334.733 836.867 334.4 837 334.4C837.133 334.4 837.4 334.533 837.8 334.8C838.2 334.933 838.533 335 838.8 335C838.933 335 839.333 334.933 840 334.8C840.667 334.667 841.133 334.6 841.4 334.6C842.6 334.6 844.067 335.4 845.8 337C846.067 337.4 846.467 337.933 847 338.6C847.667 339.133 848.333 339.733 849 340.4C849.133 340.933 849.333 341.4 849.6 341.8C849.867 342.2 850.133 342.6 850.4 343L852.2 350.4C852.2 350.533 852.333 351 852.6 351.8C853 352.467 853.2 352.867 853.2 353C853.2 353 852.933 353.467 852.4 354.4L852 354L851.6 354.2L851.2 353.8C850.533 354.067 850.2 354.533 850.2 355.2C850.2 355.333 850.267 355.6 850.4 356C850.667 356.4 850.8 356.733 850.8 357V361.2C851.067 361.6 851.333 362.133 851.6 362.8C851.867 363.333 852.133 364.067 852.4 365C852.533 365.533 852.667 366.2 852.8 367C852.933 367.667 853.133 368.467 853.4 369.4C853.8 369.8 854.267 370.333 854.8 371C855.467 371.667 856.133 372.533 856.8 373.6C857.467 374.667 858.2 375.4 859 375.8H859.6C859.867 375.8 860.067 375.733 860.2 375.6C860.467 375.467 860.733 375.4 861 375.4L861.6 375.8H864C864.8 375.8 865.2 376.267 865.2 377.2C865.2 378 864.733 378.667 863.8 379.2C862.867 379.733 862.2 380 861.8 380C861.667 380 860.867 379.467 859.4 378.4C858.067 377.2 857.2 376.6 856.8 376.6C856.4 376.6 856.333 376.733 856.6 377C856.467 376.867 856.4 376.533 856.4 376C856 375.867 854.733 374.133 852.6 370.8L850 368L848.8 364.4L847.2 363C847.467 362.733 847.467 362.467 847.2 362.2C846.933 361.933 846.6 361.133 846.2 359.8L845.6 358L843 354.6L840.8 350.2C840.8 350.2 840.6 349.733 840.2 348.8C839.933 347.733 839.467 346.733 838.8 345.8C838.133 344.867 837.4 344.4 836.6 344.4C836.333 344.4 836.2 344.467 836.2 344.6H836C836.4 344.6 835.733 344.133 834 343.2C833.867 342.933 833.267 342.733 832.2 342.6L831.4 341.6L830.8 342.8L829.4 342.2C829.133 342.2 828.867 342.333 828.6 342.6C828.467 342.733 828.333 342.8 828.2 342.8C828.067 342.8 828 342.733 828 342.6H827.8C827.667 342.6 827.467 342.8 827.2 343.2C826.933 343.6 826.667 343.8 826.4 343.8C826 343.8 825.8 343.667 825.8 343.4L823.4 344.8L822.6 344.6L817.4 347.8H817C817 347.667 816.933 347.6 816.8 347.6C817.067 347.6 815.667 348.933 812.6 351.6C811.267 352.267 810.333 352.933 809.8 353.6C809 354.267 808 355.133 806.8 356.2C805.6 357.133 804.133 358.267 802.4 359.6C801.067 360.667 800.133 361.533 799.6 362.2C799.2 362.867 798.667 363.667 798 364.6C797.867 364.6 797.6 364.933 797.2 365.6C796.8 366.267 796.4 366.867 796 367.4C796.133 367.267 796 367.2 795.6 367.2C796 367.2 795.8 367.333 795 367.6L792.8 370.6C792.533 370.733 792.133 370.933 791.6 371.2C791.067 371.333 790.333 371.667 789.4 372.2C789 371.8 788.4 371.6 787.6 371.6L787.2 370.2C787.2 368.6 787.667 367.8 788.6 367.8C788.733 367.8 788.733 367.867 788.6 368C788.6 368.133 788.733 368.2 789 368.2L791.8 365.6L793.8 363.2C794.067 363.067 794.333 362.867 794.6 362.6C795 362.333 795.467 362 796 361.6C796.267 361.6 796.467 361.533 796.6 361.4C797.133 360.867 797.667 360.2 798.2 359.4C798.867 358.6 799.6 357.667 800.4 356.6C800.4 356.2 800.467 355.867 800.6 355.6C801.933 354 802.733 352.667 803 351.6L805 349.2L806.2 346L808.6 342.2L810.2 339C811 337.133 811.8 335 812.6 332.6C813.533 330.2 814.467 327.467 815.4 324.4C815.4 324 815.467 323.733 815.6 323.6C815.6 322.667 815.533 322.333 815.4 322.6C815.4 322.067 815.333 321.667 815.2 321.4C815.2 321 815.133 320.667 815 320.4V319.2C814.867 318.8 814.667 318.333 814.4 317.8C814.133 317.267 813.867 316.667 813.6 316C813.6 316 813.2 315.867 812.4 315.6C812.4 315.6 812.267 315.467 812 315.2C811.733 314.8 811.533 314.6 811.4 314.6H811C811 314.733 810.933 314.8 810.8 314.8C810.8 314.8 810.333 314.533 809.4 314C809.267 314 808.8 314.2 808 314.6C807.2 315 806.733 315.2 806.6 315.2C806.333 315.2 806.267 315.133 806.4 315H806C805.867 315 805.6 315.133 805.2 315.4C804.8 315.667 804.467 315.8 804.2 315.8L803.8 315L801 315.6C800.067 315.867 799.4 316.133 799 316.4C798.6 316.533 798.333 316.6 798.2 316.6C798.067 316.6 798 316.533 798 316.4H797.8C797.533 316.4 797.2 316.6 796.8 317L793.4 318.2C792.333 317.667 791.533 317.4 791 317.4C790.733 317.4 790.333 317.667 789.8 318.2C789.667 318.6 789.333 319 788.8 319.4C788.267 319.667 787.867 320 787.6 320.4C787.467 320.4 787.267 320.333 787 320.2C786.733 320.067 786.467 320 786.2 320C785.933 320.267 785.867 320.6 786 321H785.6C784.667 321 783.6 321.4 782.4 322.2C781.333 323 779.467 323.933 776.8 325C775.867 325.533 774.533 326.4 772.8 327.6C771.2 328.8 770.333 329.4 770.2 329.4C769.933 329.4 769.8 329.333 769.8 329.2H769.4C769.267 329.2 768.067 330.133 765.8 332C765.533 332.133 765.2 332.267 764.8 332.4C764.4 332.533 763.867 332.667 763.2 332.8C762.8 334.267 760.667 335.533 756.8 336.6C756.533 337.4 755.467 338.267 753.6 339.2C753.6 339.333 753.467 339.667 753.2 340.2C751.467 340.733 750.133 341.667 749.2 343C749.2 343.533 748.867 344.2 748.2 345C746.867 346.333 746.067 347.733 745.8 349.2C744.467 351.333 743.867 352.333 744 352.2C744.133 352.333 744.133 352.4 744 352.4V352.2C743.867 352.2 743.667 352.133 743.4 352L742.4 353.2C742.4 353.467 742.333 354 742.2 354.8C742.067 355.467 742 355.933 742 356.2L741.2 355.6C741.067 355.6 740.933 355.533 740.8 355.4L739.6 357.4C739.467 357.4 739.267 357.6 739 358C737.8 358.533 737.267 359.467 737.4 360.8L735 363C734.867 363.133 734.733 363.467 734.6 364C734.467 364.4 734.267 365 734 365.8C733.733 365.933 733.4 366.133 733 366.4C732.733 366.667 732.333 366.933 731.8 367.2L731 369.4C730.467 369.4 729.733 370.067 728.8 371.4C728.533 371.667 728.2 372 727.8 372.4C727.533 372.8 727.267 373.4 727 374.2C724.2 375.4 722.6 377.4 722.2 380.2C721.267 380.333 720.467 380.933 719.8 382C719.8 382.4 719.6 383.133 719.2 384.2C718.667 384.467 718.067 384.867 717.4 385.4C716.867 385.8 716.2 386.333 715.4 387L713.6 389.4C713.333 389.667 713 390 712.6 390.4C712.333 390.667 712.067 390.867 711.8 391C711.4 391.533 711.333 391.933 711.6 392.2C711.333 392.333 711 392.467 710.6 392.6C710.2 392.733 709.733 392.933 709.2 393.2L708.6 395.2C708.6 395.6 708.2 395.933 707.4 396.2C706.6 397.8 705.933 398.6 705.4 398.6C705.133 398.6 704.933 398.533 704.8 398.4C704.133 399.733 703.133 401.267 701.8 403C701.667 403.133 701.6 403.333 701.6 403.6C700.933 403.6 700.4 403.8 700 404.2C699.6 404.733 699.267 405 699 405H698.8C698.8 404.867 698.733 404.8 698.6 404.8C698.6 404.8 698.467 405 698.2 405.4C697.933 405.8 697.533 406.467 697 407.4L696 409C695.2 409.267 694.733 409.667 694.6 410.2C693.8 410.467 693.133 411 692.6 411.8C692.2 412.6 691.933 413 691.8 413H691.4C691.267 412.867 691.133 412.8 691 412.8C690.467 412.8 690 413.333 689.6 414.4C688.667 414.8 688.067 415.333 687.8 416L684.2 419C682.733 419.667 681.733 420.4 681.2 421.2V421.4C681.2 421.8 681 422.333 680.6 423C680.333 423.667 679.333 424.533 677.6 425.6ZM606 317.4L605.2 316.6L605.4 316.2L606.2 317L606 317.4ZM581.8 351.2H582C582 351.2 581.933 351.2 581.8 351.2ZM673.6 428.2L674.2 426.2C674.467 426.067 674.8 426 675.2 426C675.867 426 676.2 426.6 676.2 427.8C674.733 428.333 673.867 428.467 673.6 428.2ZM876.769 395.8C876.369 395.8 876.035 395.467 875.769 394.8C875.635 394.933 875.569 395.067 875.569 395.2H874.369L873.769 394C873.635 394.133 873.569 394.267 873.569 394.4C873.435 394.4 873.235 394.267 872.969 394L872.369 394.4C871.702 393.733 870.969 392.867 870.169 391.8C869.502 390.6 869.102 389.4 868.969 388.2C868.835 388.067 868.569 388 868.169 388V386.4C868.702 386.267 869.035 385.2 869.169 383.2L869.769 382.4V381.4L869.369 381L870.169 380.4L872.369 374.2L874.369 372V371.4C875.969 370.333 876.969 369.2 877.369 368C877.902 368 878.169 367.733 878.169 367.2C879.902 366.667 880.569 365.8 880.169 364.6C880.435 364.467 880.569 364.4 880.569 364.4C880.702 364.4 880.769 364.4 880.769 364.4C880.902 364.4 881.169 364.533 881.569 364.8C881.969 364.933 882.235 365 882.369 365C882.635 365 882.835 364.933 882.969 364.8C883.235 364.667 883.435 364.6 883.569 364.6C884.102 365.133 884.435 365.4 884.569 365.4C885.235 365.4 885.902 365.133 886.569 364.6C886.569 364.733 886.635 364.933 886.769 365.2C886.902 365.467 886.969 365.667 886.969 365.8C886.969 366.467 886.702 367.067 886.169 367.6L886.769 368.4C886.769 369.333 885.969 370.8 884.369 372.8C882.769 374.533 881.635 375.533 880.969 375.8C880.835 375.933 880.702 376.2 880.569 376.6C880.435 376.867 880.235 377.133 879.969 377.4H879.569L879.169 377L877.169 379.6C877.169 380.133 876.635 381.133 875.569 382.6C875.169 382.733 874.835 382.8 874.569 382.8C874.435 382.667 874.369 382.667 874.369 382.8V384.2C875.035 385.4 875.302 386.2 875.169 386.6C874.769 387.4 874.569 387.867 874.569 388C874.569 387.867 874.969 388.4 875.769 389.6C875.635 389.733 875.569 390.2 875.569 391C876.635 391.133 878.035 391.733 879.769 392.8H880.569C881.102 392.8 881.435 392.733 881.569 392.6C881.835 392.333 881.969 392.2 881.969 392.2C882.102 392.2 882.169 392.267 882.169 392.4H882.369C882.502 392.4 882.835 392.133 883.369 391.6C883.902 391.067 884.235 390.8 884.369 390.8C884.502 390.8 884.569 390.867 884.569 391C884.569 391.133 884.635 391.2 884.769 391.2C884.902 391.2 885.169 391.133 885.569 391C885.969 390.867 886.302 390.8 886.569 390.8V390.2C886.435 390.067 886.435 390 886.569 390V390.2C886.702 390.333 887.169 390.533 887.969 390.8L887.769 390C888.169 389.867 888.502 389.467 888.769 388.8C889.435 388.8 890.035 388.733 890.569 388.6C891.235 388.333 891.569 388 891.569 387.6H893.169C893.169 387.867 893.302 388 893.569 388C894.902 388 895.635 387.133 895.769 385.4L896.969 384.2C896.969 384.2 897.102 384.333 897.369 384.6C897.902 384.067 898.369 383.8 898.769 383.8C898.902 383.8 898.969 383.867 898.969 384C899.102 384.133 899.302 384.2 899.569 384.2C899.969 384.2 900.369 384 900.769 383.6C901.169 383.2 901.369 382.933 901.369 382.8C901.635 382.533 901.969 382.267 902.369 382C902.769 381.733 903.102 381.333 903.369 380.8L904.569 381.4C904.435 381.267 905.835 380.067 908.769 377.8C910.102 377.267 910.769 376.867 910.769 376.6C911.302 376.6 911.835 376.4 912.369 376V375.4L915.169 374V375.2H914.169C914.035 375.333 913.969 375.733 913.969 376.4L909.369 380C909.102 380 909.035 379.933 909.169 379.8H908.969C909.102 379.8 908.502 380.467 907.169 381.8C906.902 382.067 906.369 382.2 905.569 382.2C903.835 383.8 903.169 384.533 903.569 384.4C903.435 384.267 903.302 384.2 903.169 384.2C903.035 384.333 902.969 384.6 902.969 385H902.769C902.235 385 901.435 385.533 900.369 386.6C900.235 386.6 900.035 386.6 899.769 386.6C899.502 386.6 899.235 386.667 898.969 386.8C898.435 387.2 897.769 387.733 896.969 388.4C896.302 388.933 895.502 389.6 894.569 390.4H893.369C892.435 391.2 891.769 391.6 891.369 391.6H890.769C890.635 391.467 890.502 391.4 890.369 391.4C890.235 391.4 889.702 391.667 888.769 392.2C887.969 392.733 887.435 393 887.169 393H886.969C886.969 392.867 886.902 392.8 886.769 392.8C886.635 392.8 886.102 393.067 885.169 393.6C884.369 394 883.902 394.2 883.769 394.2H883.569C883.569 394.067 883.435 394 883.169 394C883.035 394 882.835 394.067 882.569 394.2C882.435 394.333 882.102 394.467 881.569 394.6C880.235 395.267 879.835 395.6 880.369 395.6C880.235 395.6 879.835 395.533 879.169 395.4C878.502 395.267 878.035 395.2 877.769 395.2L876.769 395.8ZM916.769 373.6C916.635 373.6 916.502 373.533 916.369 373.4C916.369 373.133 916.302 373 916.169 373L918.969 370C919.502 370 919.769 370.133 919.769 370.4C919.769 370.933 919.302 371.6 918.369 372.4C917.569 373.067 917.035 373.467 916.769 373.6ZM890.569 357.6C889.502 357.6 888.035 356.867 886.169 355.4C884.569 353.8 883.769 352.533 883.769 351.6C885.369 350.933 887.102 350.2 888.969 349.4C890.969 348.467 893.035 347.467 895.169 346.4H895.369C894.835 347.867 894.102 349.067 893.169 350L893.569 351.4V352.6L892.569 353.8C892.569 356.333 891.902 357.6 890.569 357.6ZM920.142 401C916.009 397.933 913.676 394 913.142 389.2C913.009 389.067 912.876 388.933 912.742 388.8C912.742 388.667 912.609 388.533 912.342 388.4C912.342 387.867 912.276 387.333 912.142 386.8C912.142 386.267 912.076 385.733 911.942 385.2C911.409 383.2 911.009 379.8 910.742 375C910.742 374.867 910.676 374.533 910.542 374C910.409 373.333 910.342 372.867 910.342 372.6L910.542 372.4C910.809 371.733 910.742 371.267 910.342 371L911.142 370C911.142 370 911.009 369.867 910.742 369.6C911.142 368.533 911.342 367.533 911.342 366.6C911.342 366.333 911.142 366.067 910.742 365.8C910.476 365.4 910.342 365.2 910.342 365.2C910.076 365.2 909.942 365.333 909.942 365.6C909.409 365.067 908.742 364.8 907.942 364.8C907.809 364.8 907.609 364.867 907.342 365C907.076 365.133 906.876 365.2 906.742 365.2C906.609 365.2 906.409 365.133 906.142 365C905.876 364.867 905.676 364.8 905.542 364.8C905.409 364.8 905.342 364.867 905.342 365C905.342 365.133 905.276 365.2 905.142 365.2C904.876 365.2 904.476 364.733 903.942 363.8C903.276 364.333 902.676 364.6 902.142 364.6C901.742 364.6 900.809 364.133 899.342 363.2C899.609 362.8 900.009 362.6 900.542 362.6C901.076 362.6 901.476 362.733 901.742 363L902.342 362.2C903.142 363 903.742 363.4 904.142 363.4C904.409 363.4 904.809 363.133 905.342 362.6H905.942V363.6H911.742L912.742 361.6C912.476 361.067 912.342 360.667 912.342 360.4C912.342 359.467 912.742 358.267 913.542 356.8C914.342 355.2 914.742 354 914.742 353.2C915.542 352.667 915.876 352.133 915.742 351.6C915.742 351.6 915.609 351.2 915.342 350.4C915.742 350 915.942 349.6 915.942 349.2L916.342 349.6C916.342 349.6 916.476 349.133 916.742 348.2L917.742 346.8C917.742 346 918.142 345.2 918.942 344.4C919.076 343.733 919.276 343 919.542 342.2C919.809 341.267 920.276 340.333 920.942 339.4L924.142 334.8C924.142 334.667 924.009 334.467 923.742 334.2C924.409 332.067 925.209 330.6 926.142 329.8L928.342 328V327.4C929.409 326.333 930.009 325.6 930.142 325.2C930.409 324.667 930.809 324.067 931.342 323.4C931.876 322.6 932.942 321.4 934.542 319.8C934.809 319.667 935.142 319.467 935.542 319.2C936.076 318.8 936.609 318.333 937.142 317.8L937.542 316.4C938.209 316.133 938.809 315.733 939.342 315.2C939.742 314.667 941.142 313.2 943.542 310.8C943.542 310.8 943.609 310.8 943.742 310.8C943.876 310.8 944.009 310.733 944.142 310.6C944.942 309.533 946.142 308.733 947.742 308.2C947.742 308.2 947.876 308.067 948.142 307.8C948.542 307.533 948.942 306.933 949.342 306C950.542 305.467 951.142 305.2 951.142 305.2H951.542C951.542 305.333 951.609 305.4 951.742 305.4C951.609 305.4 952.009 304.8 952.942 303.6C954.276 302.933 955.276 302.6 955.942 302.6C956.476 302.2 957.142 301.733 957.942 301.2C958.742 300.533 959.609 299.733 960.542 298.8C960.676 298.8 960.876 298.8 961.142 298.8C961.409 298.8 961.676 298.733 961.942 298.6C962.076 298.333 962.609 297.867 963.542 297.2C963.809 297.2 964.209 297.133 964.742 297C965.409 296.867 966.409 296.467 967.742 295.8C969.209 295 970.009 294.6 970.142 294.6H970.342C970.209 294.733 970.276 294.8 970.542 294.8C970.676 294.8 970.742 294.667 970.742 294.4H972.542L973.142 293.6C974.209 293.467 975.076 293.4 975.742 293.4C976.409 293.4 977.009 293.333 977.542 293.2C977.942 293.067 978.476 292.867 979.142 292.6C979.809 292.2 980.209 292 980.342 292C980.476 292 980.542 292.067 980.542 292.2C980.542 292.333 980.609 292.4 980.742 292.4C980.876 292.4 981.476 292.267 982.542 292C983.609 291.733 984.276 291.6 984.542 291.6C984.676 291.6 984.809 291.667 984.942 291.8C985.076 291.933 985.276 292 985.542 292C985.676 292 985.809 291.933 985.942 291.8C986.076 291.667 986.209 291.6 986.342 291.6C986.609 291.6 986.809 291.667 986.942 291.8C987.209 291.933 987.409 292 987.542 292C987.676 292 987.809 291.933 987.942 291.8H988.342C988.609 291.8 988.876 291.933 989.142 292.2C989.542 292.333 989.876 292.4 990.142 292.4C990.542 292.4 990.609 292.267 990.342 292C991.276 292 992.209 292.2 993.142 292.6C994.209 293 994.742 293.2 994.742 293.2C994.609 293.067 994.809 292.933 995.342 292.8C996.009 293.467 996.409 293.8 996.542 293.8C996.676 293.8 996.809 293.733 996.942 293.6C997.076 293.467 997.209 293.4 997.342 293.4L997.942 294H999.342C999.476 294.533 999.609 294.8 999.742 294.8H1001.34C1001.21 295.6 1001.41 296 1001.94 296C1002.21 296 1002.28 295.933 1002.14 295.8H1002.34C1002.61 295.8 1002.88 296.067 1003.14 296.6C1003.41 297 1003.61 297.2 1003.74 297.2C1003.74 297.067 1004.08 296.933 1004.74 296.8L1005.54 297.8C1006.74 297.933 1007.54 298.733 1007.94 300.2C1008.34 301.533 1008.74 302.267 1009.14 302.4C1009.14 304.267 1009.61 305.267 1010.54 305.4V307.4C1010.28 307.667 1010.14 308.067 1010.14 308.6C1009.34 308.6 1008.81 307.6 1008.54 305.6L1007.34 305C1007.34 304.467 1006.74 302.933 1005.54 300.4C1003.41 300 1002.28 299.333 1002.14 298.4C1001.88 298.533 1001.61 298.6 1001.34 298.6H1001.14C1001.14 298.6 1001.21 298.6 1001.34 298.6C1001.34 298.333 1000.74 298.133 999.542 298C998.609 297.6 997.476 297.4 996.142 297.4C996.009 297.4 995.676 297.6 995.142 298C994.742 298.4 994.476 298.6 994.342 298.6H993.142V298C992.876 297.733 992.676 297.6 992.542 297.6C992.409 297.6 992.342 297.667 992.342 297.8C992.342 297.933 992.276 298 992.142 298C991.876 298 991.409 297.867 990.742 297.6C990.209 297.2 989.876 297 989.742 297L986.942 297.2L985.142 299.2C985.009 299.2 984.809 299.133 984.542 299C984.276 298.733 984.076 298.6 983.942 298.6C984.076 298.733 983.876 298.867 983.342 299L982.142 297.8C980.676 299.133 979.676 299.8 979.142 299.8H978.942C978.942 299.667 978.876 299.6 978.742 299.6C978.609 299.6 978.209 300 977.542 300.8C976.876 301.467 975.942 301.8 974.742 301.8C973.942 301.8 973.209 301.467 972.542 300.8L968.142 305.8C968.009 305.933 967.742 306 967.342 306C967.209 306 967.142 305.933 967.142 305.8H966.942C966.809 305.8 966.609 305.933 966.342 306.2C966.209 306.333 965.809 306.4 965.142 306.4C965.009 306.4 964.809 306.6 964.542 307C964.276 307.267 964.076 307.4 963.942 307.4C963.809 307.4 963.742 307.333 963.742 307.2H963.342C963.209 307.2 962.742 307.467 961.942 308C961.142 308.533 960.676 308.8 960.542 308.8H959.742C959.742 309.2 959.676 309.533 959.542 309.8L957.542 311.4V312.6C956.209 313.533 955.142 314 954.342 314H954.142C954.142 313.867 954.076 313.8 953.942 313.8C953.409 313.8 952.209 314.733 950.342 316.6V317C950.342 317.133 950.076 317.4 949.542 317.8C949.142 318.2 947.809 319 945.542 320.2C945.409 320.467 945.009 320.733 944.342 321C943.809 321.267 943.209 321.733 942.542 322.4C941.876 322.4 941.076 323.067 940.142 324.4C940.009 324.8 939.409 325.133 938.342 325.4C937.676 325.933 936.942 326.667 936.142 327.6C935.342 328.4 934.542 329.333 933.742 330.4C933.476 331.467 932.609 332.4 931.142 333.2C931.142 333.333 931.076 333.4 930.942 333.4C930.809 333.4 930.209 333.933 929.142 335C928.742 335.533 928.476 336.133 928.342 336.8C928.342 337.333 928.276 337.733 928.142 338C928.142 338.133 928.009 338.667 927.742 339.6C927.476 340.533 926.876 341.067 925.942 341.2L925.142 342.4C923.809 343.2 923.009 344.2 922.742 345.4C922.342 345.4 921.942 345.933 921.542 347C921.542 347.133 921.676 347.333 921.942 347.6C921.809 348.133 921.342 348.467 920.542 348.6C920.542 348.6 920.676 349 920.942 349.8C920.809 350.067 920.676 350.467 920.542 351C920.409 351.4 920.209 351.933 919.942 352.6C919.942 352.6 919.942 352.733 919.942 353C919.942 353.267 919.876 353.667 919.742 354.2L918.542 355.2C918.542 355.6 917.942 356.933 916.742 359.2C916.876 359.733 917.009 359.933 917.142 359.8L916.342 361.4V362.6C917.409 362.2 918.209 362 918.742 362C920.742 362 921.676 361.933 921.542 361.8L922.942 362.2H923.942L927.542 360.6C928.209 360.067 928.542 359.8 928.542 359.8C928.942 359.8 929.342 359.4 929.742 358.6C930.676 356.867 931.742 355.267 932.942 353.8V352.8C933.342 352.4 933.742 351.6 934.142 350.4L935.142 349.6C935.142 349.2 935.342 348.6 935.742 347.8C935.742 347.667 937.009 346.6 939.542 344.6L940.342 343C940.876 342.867 941.409 342.333 941.942 341.4C941.942 341.4 942.076 341.533 942.342 341.8C944.076 340.733 944.809 340.2 944.542 340.2C944.676 340.2 945.076 340.333 945.742 340.6C946.409 340.867 946.809 341 946.942 341C947.076 341 947.209 340.933 947.342 340.8C947.609 340.667 947.876 340.6 948.142 340.6C949.742 340.6 951.009 342.2 951.942 345.4L952.742 349.8C952.876 350.2 952.942 351 952.942 352.2C953.476 352.733 954.142 353 954.942 353H955.542C955.942 352.467 956.676 352.067 957.742 351.8C957.876 351.8 958.076 351.667 958.342 351.4C958.742 351 959.009 350.8 959.142 350.8C959.276 350.8 959.342 350.867 959.342 351H959.742C959.876 351 959.942 350.933 959.942 350.8C959.942 350.667 960.209 350.533 960.742 350.4C961.142 350.4 961.542 350.333 961.942 350.2C963.142 349.667 963.742 349.4 963.742 349.4H963.942C964.076 349.533 964.209 349.6 964.342 349.6C964.476 349.6 965.009 349.267 965.942 348.6C967.009 347.8 967.609 347.4 967.742 347.4H967.942C967.942 347.533 968.009 347.6 968.142 347.6L972.342 344.6C974.876 343.267 976.476 342.6 977.142 342.6C977.142 342.6 977.276 342.733 977.542 343C977.809 343.133 978.009 343.2 978.142 343.2C978.276 343.2 978.742 342.933 979.542 342.4C980.342 341.733 980.876 341.333 981.142 341.2C983.009 340.4 983.809 339.867 983.542 339.6C984.476 339.733 986.409 338.533 989.342 336C992.409 333.333 994.009 332 994.142 332C994.276 332 994.342 332.067 994.342 332.2C994.476 332.333 994.609 332.4 994.742 332.4C995.009 332.4 996.076 331.267 997.942 329C998.476 328.867 999.076 328.6 999.742 328.2C1000.41 327.667 1001.28 326.6 1002.34 325L1003.74 323.8C1003.74 323.4 1003.81 323 1003.94 322.6C1004.08 322.6 1004.28 322.467 1004.54 322.2V321.2C1004.81 321.2 1005.08 321.067 1005.34 320.8C1006.41 319.6 1007.21 317.933 1007.74 315.8C1007.88 315.667 1008.01 315.533 1008.14 315.4C1008.41 315.267 1008.61 315.067 1008.74 314.8C1008.74 314.133 1008.68 313.6 1008.54 313.2C1009.08 312.933 1009.34 312.267 1009.34 311.2C1009.34 310.133 1009.61 309.467 1010.14 309.2H1010.94L1011.34 311C1011.34 311.133 1011.28 311.267 1011.14 311.4V311.6L1009.94 314.6C1009.54 315 1009.28 315.4 1009.14 315.8C1009.14 316.067 1009.34 316.2 1009.74 316.2C1009.61 316.867 1009.48 317.2 1009.34 317.2C1009.21 317.2 1008.94 317.467 1008.54 318C1008.28 318.533 1007.61 320 1006.54 322.4C1006.41 322.933 1006.14 323.4 1005.74 323.8C1005.48 324.2 1005.21 324.667 1004.94 325.2C1004.81 325.333 1004.41 325.667 1003.74 326.2C1003.08 326.733 1002.81 327.2 1002.94 327.6C1002.54 327.867 1002.08 328.333 1001.54 329C1001.01 329.533 1000.41 330.133 999.742 330.8C999.609 330.8 999.409 330.667 999.142 330.4C998.209 330.533 997.742 331.2 997.742 332.4C997.609 332.4 997.476 332.333 997.342 332.2C997.209 332.467 996.676 333.133 995.742 334.2C994.809 335.267 994.076 335.8 993.542 335.8C993.276 335.667 993.076 335.6 992.942 335.6C992.809 336 992.209 336.733 991.142 337.8L988.142 339.2C988.009 339.2 987.942 339.333 987.942 339.6C987.142 339.733 985.876 340.133 984.142 340.8C984.009 341.333 982.609 342.067 979.942 343C979.676 343.4 979.209 343.933 978.542 344.6C978.009 345.133 977.209 345.4 976.142 345.4C976.009 345.4 975.876 345.333 975.742 345.2H975.142C974.209 345.6 973.542 346.2 973.142 347C972.876 347.667 971.609 348.2 969.342 348.6C968.142 349.8 967.342 350.4 966.942 350.4C966.809 350.4 966.742 350.333 966.742 350.2H966.542C966.676 350.2 966.009 350.6 964.542 351.4C964.142 351.4 963.742 351.467 963.342 351.6C961.076 352.533 960.009 353 960.142 353C960.009 353 959.942 352.933 959.942 352.8C960.076 352.667 960.009 352.6 959.742 352.6C959.609 352.6 959.142 352.867 958.342 353.4C957.676 353.8 957.276 354 957.142 354H956.942C956.942 353.867 956.876 353.8 956.742 353.8C956.209 353.8 955.609 354.2 954.942 355C954.276 355.667 953.942 356.067 953.942 356.2C953.276 356.2 952.876 355.933 952.742 355.4C951.676 356.067 951.076 356.733 950.942 357.4C950.809 357.933 950.676 358.533 950.542 359.2C950.142 360.133 949.676 361.133 949.142 362.2C948.609 363.133 947.809 364.133 946.742 365.2L942.942 369C941.742 369.4 940.942 370.133 940.542 371.2L937.942 373.2C937.942 373.2 937.809 373.067 937.542 372.8C935.809 374 934.942 374.6 934.942 374.6C934.809 374.467 934.676 374.4 934.542 374.4L932.942 376.2C932.942 376.867 939.076 378.933 951.342 382.4C951.742 382.533 952.409 382.733 953.342 383C954.409 383.267 956.076 383.4 958.342 383.4C959.142 383.667 959.342 383.8 958.942 383.8C959.209 383.8 959.342 383.733 959.342 383.6C960.142 383.6 961.009 383.4 961.942 383C962.209 383 962.342 383.067 962.342 383.2C962.342 383.333 962.409 383.4 962.542 383.4H962.942L964.142 383V383.2C966.676 382.667 968.142 381.867 968.542 380.8C968.676 380.267 968.942 380.067 969.342 380.2C969.609 380.733 969.676 381.2 969.542 381.6C968.876 383.6 967.409 384.667 965.142 384.8L964.142 385.4C962.942 385.8 962.342 386.067 962.342 386.2C962.476 386.2 962.542 386.2 962.542 386.2C962.542 386.2 962.476 386.2 962.342 386.2C962.209 386.067 962.009 386 961.742 386C961.476 385.867 961.209 385.8 960.942 385.8C960.809 385.8 960.542 386 960.142 386.4C959.742 386.667 959.276 386.8 958.742 386.8H957.742C957.476 386.933 957.209 387 956.942 387L955.542 386.6C955.409 386.6 955.142 386.667 954.742 386.8C954.476 386.933 954.209 387 953.942 387C953.809 387 953.609 386.933 953.342 386.8C953.076 386.667 952.876 386.6 952.742 386.6C952.609 386.6 952.409 386.667 952.142 386.8C952.009 386.933 951.876 387 951.742 387C951.209 387 950.676 386.733 950.142 386.2C949.609 386.733 949.142 387 948.742 387C948.609 387 948.276 386.867 947.742 386.6C947.342 386.333 947.009 386.2 946.742 386.2C946.609 386.2 946.409 386.267 946.142 386.4C946.009 386.533 945.876 386.6 945.742 386.6C945.209 386.6 944.542 386.2 943.742 385.4C943.609 385.4 943.342 385.333 942.942 385.2C942.542 385.067 942.209 385 941.942 385C941.809 385 941.609 385.067 941.342 385.2C941.209 385.333 941.076 385.4 940.942 385.4C940.809 385.4 940.476 385.2 939.942 384.8C939.409 384.267 939.076 384 938.942 384C938.809 384 938.676 384.067 938.542 384.2H938.142C937.876 384.2 937.409 384.267 936.742 384.4C936.076 384.533 935.676 384.733 935.542 385C935.409 384.2 935.076 383.8 934.542 383.8H931.742C931.476 383.8 931.209 383.733 930.942 383.6C930.809 383.467 930.209 383.267 929.142 383C928.876 382.6 928.542 382.267 928.142 382C927.876 380.533 927.609 379.8 927.342 379.8C927.209 379.8 926.942 379.867 926.542 380C926.276 380 925.809 380.067 925.142 380.2C924.876 380.733 924.476 381.467 923.942 382.4C923.542 383.2 923.076 384.133 922.542 385.2C922.409 385.333 922.476 385.867 922.742 386.8L922.142 387.6V388C922.142 388.8 921.742 389.4 920.942 389.8C920.942 389.8 921.009 390 921.142 390.4C921.276 390.8 921.476 391.4 921.742 392.2C922.009 392.867 922.009 393.4 921.742 393.8C921.476 394.6 921.342 395 921.342 395C921.342 395.267 921.476 395.4 921.742 395.4C922.009 395.533 922.142 395.933 922.142 396.6C922.142 396.867 922.009 397.267 921.742 397.8C921.609 398.333 921.409 399.4 921.142 401H920.142ZM941.342 356.6H942.142C942.276 356.6 942.476 356.533 942.742 356.4C943.142 356.133 943.409 356 943.542 356C943.676 356 943.742 356.067 943.742 356.2H944.142C944.142 356.2 944.676 355.933 945.742 355.4L947.342 353.4C947.742 352.733 947.942 352.2 947.942 351.8C947.942 351.267 947.676 350.8 947.142 350.4C946.609 350.8 946.076 351.133 945.542 351.4C945.009 351.667 944.476 351.933 943.942 352.2C943.409 352.467 942.742 353 941.942 353.8C941.276 354.6 940.942 355.2 940.942 355.6C940.942 356 941.076 356.333 941.342 356.6ZM927.342 375.2H928.342L930.342 374.2L931.542 372.4C931.809 372.4 932.742 372 934.342 371.2C936.076 370.4 936.942 369.933 936.942 369.8C936.942 369.4 937.142 369.133 937.542 369C937.942 368.733 938.342 368.467 938.742 368.2C939.142 367.8 939.476 367.267 939.742 366.6C940.276 366.6 940.676 366.267 940.942 365.6C941.209 364.8 941.676 363.867 942.342 362.8L944.542 360.4C944.542 359.067 944.476 358.467 944.342 358.6C943.676 359.267 943.209 359.6 942.942 359.6C941.876 359.6 941.342 359.6 941.342 359.6C941.209 359.867 941.009 360 940.742 360C940.609 360 940.276 359.933 939.742 359.8C939.342 359.533 939.076 359.4 938.942 359.4C938.942 359.4 938.609 359.933 937.942 361C937.009 361 936.409 361.267 936.142 361.8C936.009 362.2 935.742 362.533 935.342 362.8C935.209 363.6 934.809 364 934.142 364C934.009 364 933.876 363.933 933.742 363.8C933.609 363.533 933.476 363.4 933.342 363.4C932.942 363.4 932.676 363.467 932.542 363.6C932.542 363.733 932.542 363.867 932.542 364C932.676 364.133 932.676 364.8 932.542 366C932.542 366 932.542 366.067 932.542 366.2C932.676 366.2 932.742 366.267 932.742 366.4C932.742 366.8 932.409 367.267 931.742 367.8C931.209 368.333 930.942 368.733 930.942 369C930.276 370.733 929.676 371.533 929.142 371.4L928.342 371.2C928.742 372.4 929.009 373 929.142 373C929.142 373 929.142 372.933 929.142 372.8C929.142 372.933 929.142 373 929.142 373C929.009 373.267 928.876 373.467 928.742 373.6C928.076 373.6 927.609 373.733 927.342 374V375.2ZM919.342 396.6C919.342 396.2 919.409 395.6 919.542 394.8C919.676 393.867 919.742 393.2 919.742 392.8L919.542 391.2C919.676 391.2 919.809 391.133 919.942 391C920.476 390.333 920.609 389.667 920.342 389C920.342 388.867 920.409 388.8 920.542 388.8C920.809 387.733 920.676 387 920.142 386.6C920.542 385.933 920.676 385.467 920.542 385.2C920.409 385.067 920.342 384.933 920.342 384.8L921.142 383.4V382.2C921.142 382.2 921.276 382.067 921.542 381.8C921.409 381.933 921.342 381.6 921.342 380.8C921.742 380.533 922.142 380.133 922.542 379.6C922.409 379.333 922.342 378.933 922.342 378.4C922.342 377.867 922.276 377.333 922.142 376.8C922.542 376.267 922.942 375.2 923.342 373.6C923.209 373.2 923.209 372.6 923.342 371.8C923.742 371.133 924.276 370.8 924.942 370.8C924.942 369.733 924.876 369 924.742 368.6L925.342 366.6C926.676 364.467 927.342 363.667 927.342 364.2C927.342 363.8 927.076 363.533 926.542 363.4H925.942C925.809 363.4 925.476 363.533 924.942 363.8C924.542 364.067 924.276 364.2 924.142 364.2H921.942C920.609 364.2 919.809 364.267 919.542 364.4C919.409 364.4 919.276 364.467 919.142 364.6H918.742C918.609 364.6 918.542 364.6 918.542 364.6C918.676 364.467 918.609 364.333 918.342 364.2C917.142 364.6 916.409 364.8 916.142 364.8H915.742C915.609 365.467 915.342 366.333 914.942 367.4C914.542 368.467 914.209 369.467 913.942 370.4C914.209 370.667 914.209 371.133 913.942 371.8C914.342 372.2 914.342 372.667 913.942 373.2V373.4C914.476 374.467 914.742 375.333 914.742 376C914.742 376.8 914.476 377.667 913.942 378.6C913.809 378.733 913.542 378.8 913.142 378.8V380L913.542 381.4V384.2C914.209 384.2 914.609 384.267 914.742 384.4C914.609 384.933 914.476 385.533 914.342 386.2C914.342 386.733 914.342 387.2 914.342 387.6C914.342 389.333 914.876 390.533 915.942 391.2C916.076 391.6 916.209 392.067 916.342 392.6C916.609 393 917.076 393.333 917.742 393.6C917.742 394 917.809 394.533 917.942 395.2C918.076 395.867 918.542 396.333 919.342 396.6ZM969.844 396.8C969.71 396.667 969.51 396.467 969.244 396.2C969.11 395.933 968.977 395.8 968.844 395.8H968.644C968.644 395.933 968.577 396 968.444 396C968.177 396 967.91 395.4 967.644 394.2C967.51 394.067 967.044 393.867 966.244 393.6C965.844 392.133 965.377 391.333 964.844 391.2V385.8L966.444 384C966.577 383.867 966.51 383.4 966.244 382.6C966.377 382.333 966.51 382.067 966.644 381.8C966.777 381.533 966.977 381.267 967.244 381C967.244 380.6 967.177 380.133 967.044 379.6C967.31 378.8 967.71 378.2 968.244 377.8C968.244 377 968.51 376.267 969.044 375.6C969.31 375.6 970.044 374.8 971.244 373.2L973.244 370.2C973.644 369.933 974.444 369.2 975.644 368V367.2C976.044 366.933 976.444 366.533 976.844 366C977.777 365.867 978.444 365.467 978.844 364.8C978.844 364.667 978.844 364.467 978.844 364.2C978.844 363.933 978.91 363.667 979.044 363.4C979.31 363.267 979.577 363.2 979.844 363.2C980.11 363.2 980.444 363.133 980.844 363C981.11 362.2 981.444 361.667 981.844 361.4C983.577 361.267 984.844 360.333 985.644 358.6C985.777 358.6 986.044 358.467 986.444 358.2C986.977 357.8 987.31 357.6 987.444 357.6C987.31 357.733 987.51 357.867 988.044 358C988.31 357.733 988.444 357.533 988.444 357.4C989.11 357 989.71 356.8 990.244 356.8C990.91 356 991.244 355.6 991.244 355.6C991.377 355.6 991.444 355.667 991.444 355.8C991.577 355.933 991.71 356 991.844 356C992.11 356 992.577 355.867 993.244 355.6C994.044 355.2 994.577 355 994.844 355H995.044C994.91 355.133 994.977 355.2 995.244 355.2C995.377 355.2 995.51 355.133 995.644 355C995.91 354.733 996.11 354.6 996.244 354.6C996.51 354.6 996.777 354.733 997.044 355C997.31 355.133 997.51 355.2 997.644 355.2C997.777 355.2 997.844 355.133 997.844 355C997.977 354.867 998.177 354.8 998.444 354.8C998.177 354.8 998.377 354.933 999.044 355.2C999.177 354.667 999.51 354.4 1000.04 354.4C1000.31 354.4 1000.44 354.533 1000.44 354.8C1000.58 354.933 1000.78 355 1001.04 355C1001.18 355 1001.24 354.933 1001.24 354.8H1001.64C1001.91 354.8 1002.44 355.333 1003.24 356.4C1003.51 356.133 1003.64 356 1003.64 356C1004.58 356.667 1005.11 357.2 1005.24 357.6V359.6L1004.84 359.2C1004.04 359.467 1003.24 359.6 1002.44 359.6C1002.31 359.6 1002.18 359.533 1002.04 359.4C1002.04 359.267 1001.91 359.2 1001.64 359.2C1001.51 359.2 1001.31 359.267 1001.04 359.4C1000.91 359.533 1000.78 359.6 1000.64 359.6C1000.38 359.6 1000.11 359.533 999.844 359.4C999.71 359.267 999.577 359.2 999.444 359.2C999.31 359.2 999.244 359.267 999.244 359.4C999.244 359.533 999.11 359.6 998.844 359.6H998.644C998.777 359.467 998.71 359.4 998.444 359.4C998.31 359.4 997.51 359.733 996.044 360.4C994.71 361.067 993.977 361.4 993.844 361.4C993.71 361.4 993.51 361.2 993.244 360.8L989.244 362.6L987.844 362.2C987.71 362.2 987.377 362.467 986.844 363C986.31 363.533 985.91 363.8 985.644 363.8C985.51 363.8 985.444 363.733 985.444 363.6H985.244C984.71 363.6 984.177 363.933 983.644 364.6C983.244 365.133 982.577 365.533 981.644 365.8C981.51 365.933 981.51 366.2 981.644 366.6C980.977 368.067 980.11 369 979.044 369.4C978.91 369.533 978.844 369.8 978.844 370.2H977.444C977.31 370.333 977.244 370.8 977.244 371.6C977.244 371.6 977.11 371.6 976.844 371.6C976.71 371.6 976.51 371.533 976.244 371.4C975.844 372.067 975.777 372.733 976.044 373.4H974.044C973.777 373.933 973.444 374.6 973.044 375.4C972.644 376.067 972.244 376.933 971.844 378C971.71 378.4 971.444 378.933 971.044 379.6C970.777 380.133 970.51 380.8 970.244 381.6C969.444 382.533 968.777 383.667 968.244 385V386.8C968.244 386.933 968.177 387.2 968.044 387.6C967.91 388 967.844 388.333 967.844 388.6C968.51 389.267 969.177 389.6 969.844 389.6C970.244 389.6 970.71 389.533 971.244 389.4C971.91 389.133 972.51 388.467 973.044 387.4L973.644 387.8C974.71 387.4 975.91 386.667 977.244 385.6C977.377 385.467 977.71 385.333 978.244 385.2C978.777 385.067 979.044 384.733 979.044 384.2C979.177 384.2 979.31 384.267 979.444 384.4L980.244 383C981.71 382.733 982.51 381.933 982.644 380.6C982.91 380.6 983.11 380.667 983.244 380.8L984.644 379.6C984.644 379.333 984.71 379.067 984.844 378.8C984.977 378.8 985.11 378.8 985.244 378.8C985.377 378.667 985.577 378.533 985.844 378.4L987.044 376.2C987.444 375.8 988.11 375.533 989.044 375.4C989.444 375.133 989.777 374.8 990.044 374.4C990.444 374 990.777 373.667 991.044 373.4C990.91 373.133 990.777 372.867 990.644 372.6C990.51 372.333 990.31 372.067 990.044 371.8C989.777 371.4 989.91 371.067 990.444 370.8C990.177 370.933 990.044 370.8 990.044 370.4V369.2C990.444 368.933 990.91 368.667 991.444 368.4C992.11 368.133 992.777 367.733 993.444 367.2C993.977 366.933 994.31 366.8 994.444 366.8C994.044 366.8 994.177 366.933 994.844 367.2C995.11 366.533 995.444 365.8 995.844 365C996.244 364.2 996.644 363.267 997.044 362.2L998.644 361.4C998.644 361.4 998.777 361.8 999.044 362.6C997.977 364.067 997.444 365.2 997.444 366C997.444 366.4 998.11 366.8 999.444 367.2C999.444 367.2 999.444 367.267 999.444 367.4C999.444 367.4 999.377 367.467 999.244 367.6C999.777 368 1000.18 368.4 1000.44 368.8C1000.84 369.2 1001.11 369.533 1001.24 369.8C1000.31 371.133 999.844 372.4 999.844 373.6L1000.24 374C1000.11 374.133 1000.04 374.667 1000.04 375.6C1000.18 376.4 1000.31 377.267 1000.44 378.2C1000.71 379 1000.98 379.933 1001.24 381L1002.64 383V383.6C1002.64 385.467 1003.31 387.067 1004.64 388.4L1005.24 388V388.6C1006.04 388.867 1006.91 389.467 1007.84 390.4H1010.04C1010.44 390.933 1010.84 391.2 1011.24 391.2C1013.38 391.2 1014.44 390.667 1014.44 389.6C1014.44 389.6 1014.58 389.733 1014.84 390C1016.31 389.333 1018.51 387.133 1021.44 383.4C1023.44 381 1024.58 379.867 1024.84 380L1025.64 380.2V381L1025.84 381.2C1025.84 381.2 1025.31 381.933 1024.24 383.4C1024.24 383.933 1023.71 384.6 1022.64 385.4C1022.91 385.533 1022.91 385.733 1022.64 386L1021.44 386.8L1021.84 387.4C1020.51 387.8 1019.44 388.333 1018.64 389C1017.84 389.667 1017.51 390.133 1017.64 390.4C1017.38 390.4 1016.91 390.8 1016.24 391.6C1015.71 391.6 1015.44 391.867 1015.44 392.4C1015.18 392.133 1015.04 392 1015.04 392L1014.44 392.4C1014.44 392.4 1014.31 392.467 1014.04 392.6C1013.91 392.733 1013.71 392.933 1013.44 393.2C1013.31 393.2 1013.11 393.2 1012.84 393.2C1012.58 393.2 1012.31 393.267 1012.04 393.4L1011.64 394H1010.64C1010.51 393.867 1010.38 393.8 1010.24 393.8C1009.04 393.8 1008.11 394.133 1007.44 394.8V394H1004.84V393.2C1004.58 393.467 1004.38 393.6 1004.24 393.6C1003.98 393.6 1003.58 393.4 1003.04 393C1002.64 392.467 1002.18 392.267 1001.64 392.4C1000.98 391.333 1000.18 390.267 999.244 389.2C998.444 388 997.91 387.533 997.644 387.8C997.644 387.667 997.71 387.533 997.844 387.4C997.444 387 997.177 386.4 997.044 385.6C996.11 384.533 994.31 381.267 991.644 375.8C991.11 376.333 990.444 377.067 989.644 378C988.844 378.933 987.91 379.933 986.844 381C986.71 381.267 986.577 381.6 986.444 382C986.31 382.267 986.177 382.667 986.044 383.2L984.644 384C984.644 384.267 984.577 384.6 984.444 385C984.444 385.267 984.377 385.667 984.244 386.2C984.11 386.2 983.71 386.467 983.044 387C982.51 387.533 981.977 387.8 981.444 387.8C981.31 387.8 981.11 387.667 980.844 387.4C980.577 387.667 980.244 388.067 979.844 388.6C979.444 389 978.977 389.533 978.444 390.2C978.577 390.333 978.977 390.4 979.644 390.4V391.2C979.644 391.333 979.244 391.8 978.444 392.6L978.844 393C978.444 393.267 977.577 394.067 976.244 395.4C976.11 395.4 975.844 395.4 975.444 395.4C975.177 395.4 974.844 395.467 974.444 395.6C972.71 396.267 972.177 396.6 972.844 396.6C972.444 396.6 971.977 396.533 971.444 396.4H970.244C969.977 396.4 969.844 396.533 969.844 396.8ZM1047.6 397C1046.93 396.333 1046.27 396 1045.6 396L1044 396.4C1043.87 396.4 1043.6 396.267 1043.2 396C1042.8 395.733 1042.53 395.6 1042.4 395.6C1042 395.6 1041.8 395.733 1041.8 396C1041 395.2 1040.33 394.8 1039.8 394.8H1039.6C1039.6 394.933 1039.47 395 1039.2 395C1038.8 395 1038.4 394.667 1038 394L1037.2 393C1037.07 393 1036.67 392.6 1036 391.8C1035.33 391 1035.13 389.733 1035.4 388V387.4C1035.27 387.133 1034.87 387.133 1034.2 387.4C1034.07 387.133 1033.93 386.867 1033.8 386.6C1033.67 386.2 1033.47 385.8 1033.2 385.4C1033.07 385.4 1032.47 385.933 1031.4 387L1030.2 387.6L1029 389.4C1028.07 389.933 1027.47 390.333 1027.2 390.6C1026.93 390.867 1026.73 391 1026.6 391H1026C1025.47 390.867 1025.2 390.6 1025.2 390.2C1025.2 389.933 1025.47 389.467 1026 388.8C1026.67 388.133 1027.13 387.8 1027.4 387.8C1027.67 387.933 1027.87 388 1028 388L1028.2 387.2C1029.53 386.667 1030.2 385.933 1030.2 385L1031.6 383.8C1032.13 383.8 1032.6 383.4 1033 382.6L1033.8 382L1034.6 378C1034.87 378 1035.07 377.867 1035.2 377.6C1035.33 377.333 1035.67 376.533 1036.2 375.2C1036.33 375.067 1036.33 374.6 1036.2 373.8C1036.2 373.8 1036.13 373.8 1036 373.8C1036 373.8 1035.93 373.733 1035.8 373.6C1036.2 373.067 1036.2 372.333 1035.8 371.4C1035.93 370.867 1036.47 370.467 1037.4 370.2C1037.53 369.933 1038 369.4 1038.8 368.6C1038.93 368.733 1039.2 367.467 1039.6 364.8C1039.6 364.533 1039.93 364.267 1040.6 364C1040.73 362.533 1040.93 361.467 1041.2 360.8C1041.6 360 1042.2 359 1043 357.8C1043.27 356.067 1043.6 355 1044 354.6C1045.47 352.733 1046.27 351.333 1046.4 350.4C1047.33 350.267 1048.27 349.333 1049.2 347.6C1049.2 347.6 1049.13 347.6 1049 347.6C1049 347.6 1049 347.533 1049 347.4C1049 346.333 1049.93 344.667 1051.8 342.4C1053.67 340.267 1055.8 337.533 1058.2 334.2C1058.6 334.067 1059.6 333.2 1061.2 331.6C1062 331.333 1062.47 331.133 1062.6 331C1062.73 331.267 1062.8 331.467 1062.8 331.6C1062.8 332.4 1062.4 332.933 1061.6 333.2C1060.13 335.467 1059.4 336.467 1059.4 336.2C1059.4 336.467 1059.53 336.6 1059.8 336.6C1059.93 336.6 1060 336.533 1060 336.4H1060.2C1060.47 336.4 1060.93 336.733 1061.6 337.4C1061.87 337.133 1062.2 336.933 1062.6 336.8C1062.6 336.8 1062.6 336.733 1062.6 336.6C1062.6 336.333 1062.67 336.067 1062.8 335.8C1062.93 335.667 1063.2 335.533 1063.6 335.4C1064 335.133 1064.47 334.733 1065 334.2C1065.13 333.667 1065.4 333 1065.8 332.2C1066.33 331.267 1067.07 330.533 1068 330C1067.87 329.867 1067.87 329.533 1068 329C1068.4 329.133 1068.8 328.933 1069.2 328.4C1069.73 327.867 1070.2 327.667 1070.6 327.8C1070.87 327 1071.13 326.4 1071.4 326L1072.6 325.4C1072.87 323.4 1073.53 322.4 1074.6 322.4C1074.87 322.533 1075.07 322.6 1075.2 322.6L1075.4 321.8C1075.53 321.667 1075.73 321.533 1076 321.4C1076.27 321.267 1076.53 321.067 1076.8 320.8V320.4C1076.8 319.067 1077.6 318.333 1079.2 318.2C1079.33 317.933 1079.4 317.333 1079.4 316.4H1080.4C1080.8 316 1081.07 315.667 1081.2 315.4C1081.33 315.133 1081.67 314.867 1082.2 314.6C1082.07 313.133 1083 310.867 1085 307.8C1084.47 308.2 1084 308.4 1083.6 308.4C1083.47 308.4 1083.4 308.333 1083.4 308.2C1083.4 307.933 1083.4 307.667 1083.4 307.4C1083.4 307.133 1083.47 306.733 1083.6 306.2C1083.87 305.933 1084.2 305.6 1084.6 305.2C1085.13 304.8 1085.67 304.4 1086.2 304C1086.47 303.733 1086.73 303.467 1087 303.2C1087.4 302.8 1087.87 302.333 1088.4 301.8C1088.8 301.667 1089.47 300.933 1090.4 299.6C1090.67 299.333 1091 299 1091.4 298.6C1091.8 298.067 1092.13 297.533 1092.4 297C1093.47 296.733 1094.2 296.067 1094.6 295C1095 293.933 1096.27 293 1098.4 292.2C1098.93 291.533 1099.93 290.8 1101.4 290C1101.4 290 1101.53 289.6 1101.8 288.8C1102.6 288.533 1103.67 287.533 1105 285.8C1105.13 285.533 1105.87 284.933 1107.2 284C1108.67 282.933 1109.47 282.4 1109.6 282.4H1110.4C1110.4 282.4 1110.87 282.667 1111.8 283.2C1112.73 283.6 1113.87 284.2 1115.2 285L1115.6 287.4L1115 288.6L1116.4 289.2C1116.53 289.2 1116.6 289.4 1116.6 289.8C1116.6 290.467 1116.4 291.533 1116 293C1115.87 293.8 1115.73 294.6 1115.6 295.4C1115.6 296.067 1115.67 296.733 1115.8 297.4L1111.8 303L1110.4 305C1110.27 305 1109.93 305.133 1109.4 305.4C1107.93 306.733 1106.27 309.133 1104.4 312.6C1104.27 312.6 1104.2 312.6 1104.2 312.6C1104.2 312.467 1104.13 312.4 1104 312.4C1103.33 312.8 1102.73 313.667 1102.2 315L1100.4 315.8C1100.13 316.333 1099.73 316.867 1099.2 317.4L1098.8 317L1098.2 319C1097.53 319.533 1097.13 320.067 1097 320.6C1097 321 1096.8 321.467 1096.4 322L1094 324C1093.87 324.133 1093.07 324.667 1091.6 325.6C1090.27 326.533 1089.6 327.2 1089.6 327.6C1088.8 328.533 1087.73 329.733 1086.4 331.2C1085.2 332.533 1083.73 334.2 1082 336.2C1081.47 336.867 1080.73 337.667 1079.8 338.6C1079 339.4 1077.93 340.333 1076.6 341.4C1076.33 341.667 1075.87 342.2 1075.2 343C1074.53 343.667 1073.73 344.533 1072.8 345.6C1072.13 346 1071.33 346.533 1070.4 347.2C1069.47 347.867 1068.47 348.667 1067.4 349.6C1067.4 349.733 1067.2 349.933 1066.8 350.2C1066.4 350.467 1065.8 351.2 1065 352.4H1064.4C1064 352.933 1063.47 353.533 1062.8 354.2C1062.27 354.867 1061.67 355.733 1061 356.8C1060.73 356.8 1060.53 356.867 1060.4 357C1059.47 358.333 1058.47 359.333 1057.4 360C1057.4 360.133 1057.27 360.333 1057 360.6C1056.87 360.867 1056.47 361.2 1055.8 361.6C1055.8 361.867 1055.67 362.267 1055.4 362.8C1055.13 363.333 1054.6 363.8 1053.8 364.2C1053.67 364.333 1053.6 364.6 1053.6 365H1053C1052.6 365.4 1052.27 365.933 1052 366.6C1050.67 367 1050.07 367.667 1050.2 368.6L1048.4 370.2C1047.2 371.133 1046 372.4 1044.8 374C1044.67 374.4 1044.27 376.133 1043.6 379.2C1043.87 379.467 1043.87 380.2 1043.6 381.4C1043.2 382.733 1043 383.6 1043 384C1043 384.4 1043 384.667 1043 384.8C1043 385.467 1043.33 386.267 1044 387.2C1044.8 388.133 1045.2 388.867 1045.2 389.4C1045.6 389.667 1046.13 389.667 1046.8 389.4C1046.8 389.667 1047.07 389.867 1047.6 390C1048 390.933 1048.8 391.467 1050 391.6L1050.6 390.8H1051.2C1051.33 391.333 1051.67 391.6 1052.2 391.6C1052.47 391.6 1052.8 391.467 1053.2 391.2C1053.73 390.933 1054.07 390.8 1054.2 390.8C1054.07 390.933 1054.27 391.067 1054.8 391.2C1054.93 391.067 1055 390.733 1055 390.2H1056.6C1059.27 390.2 1060.93 389.667 1061.6 388.6C1062.13 388.467 1062.73 388.267 1063.4 388C1064.07 387.733 1064.87 387.467 1065.8 387.2C1066.33 386.933 1066.67 386.533 1066.8 386C1066.67 386 1066.6 385.933 1066.6 385.8H1068.8V384.8C1069.07 384.667 1069.8 384.6 1071 384.6L1071.8 383.4L1074 382.2C1074.13 382.2 1074.4 382.133 1074.8 382C1075.33 381.867 1076 381.333 1076.8 380.4C1077.07 380.4 1077.33 380.333 1077.6 380.2C1078.4 379.667 1079.67 378.467 1081.4 376.6L1085.2 374.6L1085.6 374.2H1087.4C1087.27 374.733 1086.87 375.4 1086.2 376.2L1083.6 378C1081.87 379.2 1081.07 379.8 1081.2 379.8H1081C1081 379.667 1080.93 379.6 1080.8 379.6C1079.73 380.133 1079.07 380.8 1078.8 381.6C1078.4 381.6 1078.13 381.867 1078 382.4C1077.73 382.4 1077.4 382.467 1077 382.6C1077 382.6 1077 382.667 1077 382.8C1077 382.8 1076.93 382.933 1076.8 383.2L1074.2 385C1074.2 385.667 1073.67 386.133 1072.6 386.4C1072.2 386.4 1071.73 386.133 1071.2 385.6L1070 386.4V386.6C1070 387.267 1069.67 387.8 1069 388.2C1068.33 388.6 1067.8 388.667 1067.4 388.4C1067.53 388.533 1067.6 388.8 1067.6 389.2C1067.6 389.333 1067.27 389.867 1066.6 390.8L1061.8 393.2H1061.6C1061.6 393.067 1061.47 393 1061.2 393C1060.4 393 1059.6 393.4 1058.8 394.2C1058.4 394.333 1057.6 394.6 1056.4 395C1055.2 395.4 1054.53 395.6 1054.4 395.6L1053.8 395.2H1051.2C1050.67 395.2 1050.33 395.4 1050.2 395.8C1050.07 396.2 1049.87 396.4 1049.6 396.4C1049.47 396.4 1049.4 396.333 1049.4 396.2H1049C1048.2 396.2 1047.73 396.467 1047.6 397ZM1048.6 367.4L1049.4 367C1050.07 366.333 1050.73 365.533 1051.4 364.6C1052.2 363.667 1053 362.667 1053.8 361.6C1053.8 361.6 1054 361.4 1054.4 361C1054.8 360.6 1055 360.2 1055 359.8C1055.67 359.133 1056.4 358.467 1057.2 357.8C1058 357 1058.93 356.133 1060 355.2L1060.8 353.8C1060.93 353.667 1061.13 353.533 1061.4 353.4C1061.67 353.267 1061.93 353.067 1062.2 352.8L1066.6 348.4C1066.73 348.267 1066.8 348 1066.8 347.6C1067.73 346.933 1068.27 346.333 1068.4 345.8C1068.67 345.667 1069.13 345.267 1069.8 344.6C1070.47 343.933 1071.27 343.067 1072.2 342C1072.73 342 1073.4 341.4 1074.2 340.2C1074.47 340.067 1074.93 339.667 1075.6 339C1077.33 336.067 1078.2 334.533 1078.2 334.4H1078.8L1081.8 331.2C1082.33 330.667 1082.6 329.933 1082.6 329C1084.87 327.933 1086.13 326.6 1086.4 325L1087.8 324C1087.8 323.6 1088.27 322.933 1089.2 322C1089.2 322 1089.27 322 1089.4 322C1089.53 322 1089.67 321.933 1089.8 321.8C1090.07 321.4 1090.33 320.933 1090.6 320.4C1091 319.733 1091.47 318.933 1092 318H1093L1093.6 316.6C1093.87 316.067 1094.27 315.533 1094.8 315C1095.47 314.333 1096.13 313.533 1096.8 312.6V311.8C1097.2 311.8 1097.67 311.6 1098.2 311.2C1098.33 310.933 1098.47 310.667 1098.6 310.4C1098.73 310 1098.93 309.533 1099.2 309C1099.73 308.067 1100.4 307 1101.2 305.8C1102.13 304.6 1103.13 303.2 1104.2 301.6C1104.2 300.667 1104.73 299.533 1105.8 298.2V297.6C1105.93 297.467 1105.87 297.4 1105.6 297.4C1105.33 297.4 1105.07 297.533 1104.8 297.8C1101.47 300.333 1098.73 302.467 1096.6 304.2C1094.6 305.933 1093.27 307.2 1092.6 308C1092.2 308.133 1091.8 308.533 1091.4 309.2C1091.4 309.2 1091.2 309.4 1090.8 309.8C1090.53 310.2 1090.07 310.733 1089.4 311.4C1089 311.933 1088.4 312.133 1087.6 312C1087.47 313.067 1086.67 314.133 1085.2 315.2C1083.87 316.133 1083.13 317 1083 317.8C1081.67 318.467 1080 320.067 1078 322.6C1076.27 324.333 1073.87 327.133 1070.8 331C1070 331.4 1069 332.667 1067.8 334.8L1066.4 336C1066.4 336.533 1065.8 337.133 1064.6 337.8C1064.6 338.2 1064.33 338.667 1063.8 339.2C1063.27 339.733 1063 340.133 1063 340.4C1062.6 340.933 1061.93 341.6 1061 342.4C1061 342.4 1060.87 342.8 1060.6 343.6C1060.33 344.133 1060 344.6 1059.6 345C1059.2 345.267 1058.87 345.533 1058.6 345.8C1058.47 346.333 1058.4 346.733 1058.4 347C1058.4 347.267 1058.4 347.467 1058.4 347.6C1057.73 348.267 1057 349.2 1056.2 350.4C1055.53 351.6 1054.8 352.933 1054 354.4C1053.33 354.4 1052.8 355 1052.4 356.2C1052 357.4 1051.67 358.067 1051.4 358.2C1051.13 358.467 1050.8 358.667 1050.4 358.8V359.6L1051.2 360.2C1050.67 361.4 1050 362.067 1049.2 362.2C1049.2 362.733 1049.07 363.267 1048.8 363.8C1048.8 363.933 1048.93 364 1049.2 364C1048.93 364.667 1048.73 365.067 1048.6 365.2C1048.47 365.333 1048.27 365.533 1048 365.8L1048.6 367.4ZM1098 364.2C1098 363.667 1098.53 362.867 1099.6 361.8H1099.8C1099.8 361.933 1099.87 362 1100 362C1100.13 362 1100.6 361.467 1101.4 360.4C1102.2 359.2 1102.67 358.6 1102.8 358.6C1103.2 358.6 1103.67 358.8 1104.2 359.2V361C1103.93 361.133 1103.6 361.467 1103.2 362C1102.8 362.4 1102.53 362.6 1102.4 362.6C1102 362.6 1101.6 362.4 1101.2 362C1101.07 362 1100.8 362.4 1100.4 363.2L1098.6 364.2H1098ZM1090 372C1090 371.733 1089.73 371.533 1089.2 371.4C1090.13 370.867 1091.53 369.533 1093.4 367.4C1093.93 367.533 1094.4 367.133 1094.8 366.2C1095.2 365.267 1095.67 364.733 1096.2 364.6H1097.2L1097.6 365C1097.47 365.4 1097.27 365.867 1097 366.4C1096.73 366.933 1096.4 367.533 1096 368.2H1095.8C1095.4 368.2 1094.93 368.467 1094.4 369C1094 369.4 1093.8 369.733 1093.8 370C1093.8 370.133 1093.53 370.333 1093 370.6C1092.47 370.733 1091.73 371.2 1090.8 372H1090ZM1087.6 374V372.2C1087.87 372.333 1088.07 372.467 1088.2 372.6C1088.33 372.6 1088.4 372.6 1088.4 372.6C1088.67 372.6 1088.8 372.467 1088.8 372.2C1089.07 372.467 1089.47 372.6 1090 372.6C1089.2 373.533 1088.4 374 1087.6 374ZM1100.96 396.6C1101.09 396.6 1100.96 396.4 1100.56 396C1100.29 396.267 1099.69 396.4 1098.76 396.4C1098.49 396.4 1098.09 396.267 1097.56 396C1097.16 395.867 1096.89 395.8 1096.76 395.8C1096.62 395.8 1096.29 395.867 1095.76 396C1095.36 396.133 1095.02 396.2 1094.76 396.2C1094.62 396.2 1094.22 396.067 1093.56 395.8C1092.89 395.667 1092.42 395.6 1092.16 395.6C1092.02 393.867 1090.49 393.2 1087.56 393.6V393.2C1087.56 392.267 1087.36 391.533 1086.96 391C1086.56 390.467 1086.22 389.6 1085.96 388.4C1085.82 388.267 1085.56 388 1085.16 387.6C1084.89 387.067 1084.76 386.067 1084.76 384.6C1084.76 384.6 1084.89 384.333 1085.16 383.8C1085.29 383.667 1085.16 383.333 1084.76 382.8C1084.89 382.667 1085.16 381.6 1085.56 379.6C1085.69 378.933 1085.76 378.4 1085.76 378C1085.89 377.6 1085.96 377.267 1085.96 377C1085.16 376.333 1084.76 375.733 1084.76 375.2L1085.36 373.8C1085.49 373.933 1085.96 374 1086.76 374H1087.56C1087.82 373.6 1088.09 373.2 1088.36 372.8C1088.76 372.267 1089.22 371.733 1089.76 371.2C1090.56 371.2 1091.29 370.467 1091.96 369L1091.76 368.2C1091.89 367.933 1092.02 367.733 1092.16 367.6C1092.16 367.6 1092.22 367.6 1092.36 367.6C1092.36 367.6 1092.29 367.6 1092.16 367.6C1092.29 367.6 1092.49 367.667 1092.76 367.8C1092.89 367.667 1093.16 367.4 1093.56 367C1093.96 366.6 1094.62 366.067 1095.56 365.4C1095.96 364.867 1096.62 364.2 1097.56 363.4C1099.16 362.333 1100.02 361.8 1100.16 361.8C1100.42 361.8 1101.02 361.4 1101.96 360.6C1102.22 360.733 1102.42 360.867 1102.56 361C1102.69 361 1102.76 361 1102.76 361C1103.02 361 1104.09 360.533 1105.96 359.6C1105.82 360.133 1105.96 360.4 1106.36 360.4H1107.76C1108.42 360 1108.76 359.8 1108.76 359.8C1110.09 359.8 1111.69 360.533 1113.56 362C1113.69 362.133 1113.89 362.2 1114.16 362.2V365.4C1113.89 365.4 1113.62 365.267 1113.36 365L1112.56 366.8C1113.09 367.6 1113.36 368 1113.36 368C1113.09 368.133 1112.42 369.267 1111.36 371.4V373C1110.82 373 1110.36 373.067 1109.96 373.2C1107.82 374.667 1106.62 375.4 1106.36 375.4H1105.96C1105.82 375.267 1105.69 375.2 1105.56 375.2C1105.02 375.2 1104.29 375.467 1103.36 376C1103.22 376.133 1103.02 376.4 1102.76 376.8C1102.49 377.067 1102.16 377.2 1101.76 377.2H1101.56C1101.56 377.067 1101.49 377 1101.36 377C1101.09 377 1100.36 377.267 1099.16 377.8C1098.09 378.2 1097.49 378.4 1097.36 378.4H1096.96C1096.82 378.267 1096.69 378.2 1096.56 378.2L1095.96 378.8H1094.76C1094.22 378.8 1093.82 378.667 1093.56 378.4H1090.96C1090.96 378.933 1090.76 379.733 1090.36 380.8C1090.09 381.867 1089.96 382.467 1089.96 382.6C1089.96 383 1090.42 383.933 1091.36 385.4C1091.49 385.533 1091.76 385.867 1092.16 386.4C1092.56 386.8 1093.16 387.333 1093.96 388C1094.22 388.533 1094.62 389.067 1095.16 389.6C1095.42 389.733 1095.69 389.8 1095.96 389.8C1096.22 389.8 1096.56 389.867 1096.96 390L1097.56 390.8C1097.96 390.533 1098.56 390.533 1099.36 390.8L1100.36 391.4C1101.02 391.4 1101.36 391.4 1101.36 391.4C1101.36 391.267 1101.36 391.2 1101.36 391.2C1101.49 391.333 1101.49 391.4 1101.36 391.4C1101.49 391.533 1101.62 391.6 1101.76 391.6C1101.89 391.6 1102.02 391.533 1102.16 391.4C1102.42 391.133 1102.62 391 1102.76 391H1103.16C1103.16 391.133 1103.22 391.2 1103.36 391.2C1103.76 391.2 1104.22 390.933 1104.76 390.4C1105.16 390.533 1105.56 390.533 1105.96 390.4L1106.16 390.6V391.2C1105.89 391.333 1105.56 391.533 1105.16 391.8C1104.76 392.067 1104.22 392.333 1103.56 392.6V393.4C1103.56 393.533 1103.82 393.6 1104.36 393.6C1106.62 393.6 1108.42 392.933 1109.76 391.6C1110.02 391.733 1110.22 391.867 1110.36 392C1110.49 392 1110.56 392 1110.56 392C1110.82 392 1110.96 391.867 1110.96 391.6H1111.96C1112.22 391.467 1112.62 391.133 1113.16 390.6C1113.69 389.933 1114.22 389.6 1114.76 389.6L1115.56 389.8L1116.16 388.2L1116.76 388.6C1117.02 388.333 1117.62 388.2 1118.56 388.2C1118.56 388.2 1118.56 388.133 1118.56 388C1118.56 387.867 1118.62 387.733 1118.76 387.6C1120.09 387.333 1121.76 386.2 1123.76 384.2H1124.56L1127.56 381.8C1127.56 381.533 1127.76 381.133 1128.16 380.6C1128.29 380.6 1128.49 380.733 1128.76 381L1130.56 378.6C1130.96 378.6 1131.42 378.4 1131.96 378L1132.56 378.6L1131.16 380.4C1130.36 380.933 1129.36 381.733 1128.16 382.8C1126.96 383.867 1125.62 385.133 1124.16 386.6C1123.22 386.6 1122.69 386.867 1122.56 387.4C1121.36 387.933 1120.56 388.533 1120.16 389.2L1119.56 388.6C1119.42 388.733 1119.02 389.067 1118.36 389.6C1117.82 390 1116.89 390.533 1115.56 391.2C1115.29 391.467 1114.89 391.867 1114.36 392.4C1113.82 392.8 1113.29 393 1112.76 393C1112.49 393 1112.42 392.933 1112.56 392.8H1112.36C1111.82 392.8 1111.29 393 1110.76 393.4C1110.22 393.8 1109.96 394.133 1109.96 394.4C1109.82 394.4 1109.62 394.267 1109.36 394C1107.62 394.933 1106.62 395.4 1106.36 395.4H1105.96L1105.76 395.2L1102.76 396C1102.76 396 1102.76 395.933 1102.76 395.8C1102.76 395.667 1102.69 395.533 1102.56 395.4L1101.96 396.2C1101.82 396.2 1101.62 396.267 1101.36 396.4C1101.22 396.533 1101.09 396.6 1100.96 396.6ZM1096.16 376.4C1096.02 376 1096.16 375.8 1096.56 375.8C1096.69 375.8 1096.76 375.867 1096.76 376H1097.16C1097.29 376 1097.56 375.8 1097.96 375.4C1098.49 375 1098.82 374.8 1098.96 374.8C1099.09 374.8 1099.29 374.867 1099.56 375C1099.82 375.133 1100.02 375.2 1100.16 375.2C1099.89 375.2 1100.22 374.733 1101.16 373.8L1101.76 374.2C1104.82 372.2 1106.36 370.467 1106.36 369C1106.36 367.267 1105.49 366.2 1103.76 365.8C1102.16 365.4 1100.62 365 1099.16 364.6C1098.89 364.867 1098.62 365 1098.36 365C1097.69 366.067 1096.96 366.867 1096.16 367.4C1095.89 367.4 1095.09 368.067 1093.76 369.4C1093.76 369.533 1093.36 370.133 1092.56 371.2C1092.29 372.133 1092.02 372.867 1091.76 373.4C1091.62 373.933 1091.56 374.333 1091.56 374.6C1092.09 375.533 1092.62 376 1093.16 376H1093.36C1093.49 375.867 1093.62 375.8 1093.76 375.8C1094.42 375.8 1095.22 376 1096.16 376.4ZM1133.36 377.6V377.2C1133.36 376.4 1133.76 375.933 1134.56 375.8C1134.42 376.333 1134.02 376.933 1133.36 377.6ZM1131.56 396.8C1131.43 396.667 1131.23 396.467 1130.96 396.2C1130.83 395.933 1130.7 395.8 1130.56 395.8H1130.36C1130.36 395.933 1130.3 396 1130.16 396C1129.9 396 1129.63 395.4 1129.36 394.2C1129.23 394.067 1128.76 393.867 1127.96 393.6C1127.56 392.133 1127.1 391.333 1126.56 391.2V385.8L1128.16 384C1128.3 383.867 1128.23 383.4 1127.96 382.6C1128.1 382.333 1128.23 382.067 1128.36 381.8C1128.5 381.533 1128.7 381.267 1128.96 381C1128.96 380.6 1128.9 380.133 1128.76 379.6C1129.03 378.8 1129.43 378.2 1129.96 377.8C1129.96 377 1130.23 376.267 1130.76 375.6C1131.03 375.6 1131.76 374.8 1132.96 373.2L1134.96 370.2C1135.36 369.933 1136.16 369.2 1137.36 368V367.2C1137.76 366.933 1138.16 366.533 1138.56 366C1139.5 365.867 1140.16 365.467 1140.56 364.8C1140.56 364.667 1140.56 364.467 1140.56 364.2C1140.56 363.933 1140.63 363.667 1140.76 363.4C1141.03 363.267 1141.3 363.2 1141.56 363.2C1141.83 363.2 1142.16 363.133 1142.56 363C1142.83 362.2 1143.16 361.667 1143.56 361.4C1145.3 361.267 1146.56 360.333 1147.36 358.6C1147.5 358.6 1147.76 358.467 1148.16 358.2C1148.7 357.8 1149.03 357.6 1149.16 357.6C1149.03 357.733 1149.23 357.867 1149.76 358C1150.03 357.733 1150.16 357.533 1150.16 357.4C1150.83 357 1151.43 356.8 1151.96 356.8C1152.63 356 1152.96 355.6 1152.96 355.6C1153.1 355.6 1153.16 355.667 1153.16 355.8C1153.3 355.933 1153.43 356 1153.56 356C1153.83 356 1154.3 355.867 1154.96 355.6C1155.76 355.2 1156.3 355 1156.56 355H1156.76C1156.63 355.133 1156.7 355.2 1156.96 355.2C1157.1 355.2 1157.23 355.133 1157.36 355C1157.63 354.733 1157.83 354.6 1157.96 354.6C1158.23 354.6 1158.5 354.733 1158.76 355C1159.03 355.133 1159.23 355.2 1159.36 355.2C1159.5 355.2 1159.56 355.133 1159.56 355C1159.7 354.867 1159.9 354.8 1160.16 354.8C1159.9 354.8 1160.1 354.933 1160.76 355.2C1160.9 354.667 1161.23 354.4 1161.76 354.4C1162.03 354.4 1162.16 354.533 1162.16 354.8C1162.3 354.933 1162.5 355 1162.76 355C1162.9 355 1162.96 354.933 1162.96 354.8H1163.36C1163.63 354.8 1164.16 355.333 1164.96 356.4C1165.23 356.133 1165.36 356 1165.36 356C1166.3 356.667 1166.83 357.2 1166.96 357.6V359.6L1166.56 359.2C1165.76 359.467 1164.96 359.6 1164.16 359.6C1164.03 359.6 1163.9 359.533 1163.76 359.4C1163.76 359.267 1163.63 359.2 1163.36 359.2C1163.23 359.2 1163.03 359.267 1162.76 359.4C1162.63 359.533 1162.5 359.6 1162.36 359.6C1162.1 359.6 1161.83 359.533 1161.56 359.4C1161.43 359.267 1161.3 359.2 1161.16 359.2C1161.03 359.2 1160.96 359.267 1160.96 359.4C1160.96 359.533 1160.83 359.6 1160.56 359.6H1160.36C1160.5 359.467 1160.43 359.4 1160.16 359.4C1160.03 359.4 1159.23 359.733 1157.76 360.4C1156.43 361.067 1155.7 361.4 1155.56 361.4C1155.43 361.4 1155.23 361.2 1154.96 360.8L1150.96 362.6L1149.56 362.2C1149.43 362.2 1149.1 362.467 1148.56 363C1148.03 363.533 1147.63 363.8 1147.36 363.8C1147.23 363.8 1147.16 363.733 1147.16 363.6H1146.96C1146.43 363.6 1145.9 363.933 1145.36 364.6C1144.96 365.133 1144.3 365.533 1143.36 365.8C1143.23 365.933 1143.23 366.2 1143.36 366.6C1142.7 368.067 1141.83 369 1140.76 369.4C1140.63 369.533 1140.56 369.8 1140.56 370.2H1139.16C1139.03 370.333 1138.96 370.8 1138.96 371.6C1138.96 371.6 1138.83 371.6 1138.56 371.6C1138.43 371.6 1138.23 371.533 1137.96 371.4C1137.56 372.067 1137.5 372.733 1137.76 373.4H1135.76C1135.5 373.933 1135.16 374.6 1134.76 375.4C1134.36 376.067 1133.96 376.933 1133.56 378C1133.43 378.4 1133.16 378.933 1132.76 379.6C1132.5 380.133 1132.23 380.8 1131.96 381.6C1131.16 382.533 1130.5 383.667 1129.96 385V386.8C1129.96 386.933 1129.9 387.2 1129.76 387.6C1129.63 388 1129.56 388.333 1129.56 388.6C1130.23 389.267 1130.9 389.6 1131.56 389.6C1131.96 389.6 1132.43 389.533 1132.96 389.4C1133.63 389.133 1134.23 388.467 1134.76 387.4L1135.36 387.8C1136.43 387.4 1137.63 386.667 1138.96 385.6C1139.1 385.467 1139.43 385.333 1139.96 385.2C1140.5 385.067 1140.76 384.733 1140.76 384.2C1140.9 384.2 1141.03 384.267 1141.16 384.4L1141.96 383C1143.43 382.733 1144.23 381.933 1144.36 380.6C1144.63 380.6 1144.83 380.667 1144.96 380.8L1146.36 379.6C1146.36 379.333 1146.43 379.067 1146.56 378.8C1146.7 378.8 1146.83 378.8 1146.96 378.8C1147.1 378.667 1147.3 378.533 1147.56 378.4L1148.76 376.2C1149.16 375.8 1149.83 375.533 1150.76 375.4C1151.16 375.133 1151.5 374.8 1151.76 374.4C1152.16 374 1152.5 373.667 1152.76 373.4C1152.63 373.133 1152.5 372.867 1152.36 372.6C1152.23 372.333 1152.03 372.067 1151.76 371.8C1151.5 371.4 1151.63 371.067 1152.16 370.8C1151.9 370.933 1151.76 370.8 1151.76 370.4V369.2C1152.16 368.933 1152.63 368.667 1153.16 368.4C1153.83 368.133 1154.5 367.733 1155.16 367.2C1155.7 366.933 1156.03 366.8 1156.16 366.8C1155.76 366.8 1155.9 366.933 1156.56 367.2C1156.83 366.533 1157.16 365.8 1157.56 365C1157.96 364.2 1158.36 363.267 1158.76 362.2L1160.36 361.4C1160.36 361.4 1160.5 361.8 1160.76 362.6C1159.7 364.067 1159.16 365.2 1159.16 366C1159.16 366.4 1159.83 366.8 1161.16 367.2C1161.16 367.2 1161.16 367.267 1161.16 367.4C1161.16 367.4 1161.1 367.467 1160.96 367.6C1161.5 368 1161.9 368.4 1162.16 368.8C1162.56 369.2 1162.83 369.533 1162.96 369.8C1162.03 371.133 1161.56 372.4 1161.56 373.6L1161.96 374C1161.83 374.133 1161.76 374.667 1161.76 375.6C1161.9 376.4 1162.03 377.267 1162.16 378.2C1162.43 379 1162.7 379.933 1162.96 381L1164.36 383V383.6C1164.36 385.467 1165.03 387.067 1166.36 388.4L1166.96 388V388.6C1167.76 388.867 1168.63 389.467 1169.56 390.4H1171.76C1172.16 390.933 1172.56 391.2 1172.96 391.2C1175.1 391.2 1176.16 390.667 1176.16 389.6C1176.16 389.6 1176.3 389.733 1176.56 390C1178.03 389.333 1180.23 387.133 1183.16 383.4C1185.16 381 1186.3 379.867 1186.56 380L1187.36 380.2V381L1187.56 381.2C1187.56 381.2 1187.03 381.933 1185.96 383.4C1185.96 383.933 1185.43 384.6 1184.36 385.4C1184.63 385.533 1184.63 385.733 1184.36 386L1183.16 386.8L1183.56 387.4C1182.23 387.8 1181.16 388.333 1180.36 389C1179.56 389.667 1179.23 390.133 1179.36 390.4C1179.1 390.4 1178.63 390.8 1177.96 391.6C1177.43 391.6 1177.16 391.867 1177.16 392.4C1176.9 392.133 1176.76 392 1176.76 392L1176.16 392.4C1176.16 392.4 1176.03 392.467 1175.76 392.6C1175.63 392.733 1175.43 392.933 1175.16 393.2C1175.03 393.2 1174.83 393.2 1174.56 393.2C1174.3 393.2 1174.03 393.267 1173.76 393.4L1173.36 394H1172.36C1172.23 393.867 1172.1 393.8 1171.96 393.8C1170.76 393.8 1169.83 394.133 1169.16 394.8V394H1166.56V393.2C1166.3 393.467 1166.1 393.6 1165.96 393.6C1165.7 393.6 1165.3 393.4 1164.76 393C1164.36 392.467 1163.9 392.267 1163.36 392.4C1162.7 391.333 1161.9 390.267 1160.96 389.2C1160.16 388 1159.63 387.533 1159.36 387.8C1159.36 387.667 1159.43 387.533 1159.56 387.4C1159.16 387 1158.9 386.4 1158.76 385.6C1157.83 384.533 1156.03 381.267 1153.36 375.8C1152.83 376.333 1152.16 377.067 1151.36 378C1150.56 378.933 1149.63 379.933 1148.56 381C1148.43 381.267 1148.3 381.6 1148.16 382C1148.03 382.267 1147.9 382.667 1147.76 383.2L1146.36 384C1146.36 384.267 1146.3 384.6 1146.16 385C1146.16 385.267 1146.1 385.667 1145.96 386.2C1145.83 386.2 1145.43 386.467 1144.76 387C1144.23 387.533 1143.7 387.8 1143.16 387.8C1143.03 387.8 1142.83 387.667 1142.56 387.4C1142.3 387.667 1141.96 388.067 1141.56 388.6C1141.16 389 1140.7 389.533 1140.16 390.2C1140.3 390.333 1140.7 390.4 1141.36 390.4V391.2C1141.36 391.333 1140.96 391.8 1140.16 392.6L1140.56 393C1140.16 393.267 1139.3 394.067 1137.96 395.4C1137.83 395.4 1137.56 395.4 1137.16 395.4C1136.9 395.4 1136.56 395.467 1136.16 395.6C1134.43 396.267 1133.9 396.6 1134.56 396.6C1134.16 396.6 1133.7 396.533 1133.16 396.4H1131.96C1131.7 396.4 1131.56 396.533 1131.56 396.8Z" fill="#FB469A"/>
<defs>
<filter id="filter0_i_48_177" x="0" y="25.52" width="1450.34" height="319.48" filterUnits="userSpaceOnUse" color-interpolation-filters="sRGB">
<feFlood flood-opacity="0" result="BackgroundImageFix"/>
<feBlend mode="normal" in="SourceGraphic" in2="BackgroundImageFix" result="shape"/>
<feColorMatrix in="SourceAlpha" type="matrix" values="0 0 0 0 0 0 0 0 0 0 0 0 0 0 0 0 0 0 127 0" result="hardAlpha"/>
<feOffset dx="17" dy="4"/>
<feGaussianBlur stdDeviation="2"/>
<feComposite in2="hardAlpha" operator="arithmetic" k2="-1" k3="1"/>
<feColorMatrix type="matrix" values="0 0 0 0 0 0 0 0 0 0 0 0 0 0 0 0 0 0 0.25 0"/>
<feBlend mode="normal" in2="shape" result="effect1_innerShadow_48_177"/>
</filter>
</defs>
</svg>
