<svg width="46" height="36" viewBox="0 0 46 36" fill="none" xmlns="http://www.w3.org/2000/svg">
<g id="facebook">
<path id="Vector" d="M40.0584 3.41675H5.94171C5.38254 3.41675 4.84628 3.58576 4.45089 3.8866C4.0555 4.18744 3.83337 4.59546 3.83337 5.02091V30.9792C3.83337 31.1899 3.88791 31.3985 3.99386 31.5931C4.09982 31.7878 4.25511 31.9646 4.45089 32.1136C4.64667 32.2625 4.87909 32.3807 5.13488 32.4613C5.39068 32.5419 5.66484 32.5834 5.94171 32.5834H24.3034V21.2813H19.32V16.9063H24.3034V13.6251C24.2001 12.8547 24.3197 12.0765 24.6536 11.345C24.9875 10.6135 25.5277 9.9465 26.2363 9.39068C26.9449 8.83486 27.8047 8.40372 28.7555 8.12751C29.7062 7.8513 30.7249 7.7367 31.74 7.79175C33.2318 7.78476 34.7229 7.84319 36.2059 7.96675V11.9042H33.1584C30.7434 11.9042 30.2834 12.7792 30.2834 14.048V16.8626H36.0334L35.2859 21.2376H30.2834V32.5834H40.0584C40.3352 32.5834 40.6094 32.5419 40.8652 32.4613C41.121 32.3807 41.3534 32.2625 41.5492 32.1136C41.745 31.9646 41.9003 31.7878 42.0062 31.5931C42.1122 31.3985 42.1667 31.1899 42.1667 30.9792V5.02091C42.1667 4.81025 42.1122 4.60165 42.0062 4.40703C41.9003 4.2124 41.745 4.03556 41.5492 3.8866C41.3534 3.73764 41.121 3.61948 40.8652 3.53886C40.6094 3.45824 40.3352 3.41675 40.0584 3.41675Z" fill="#FB469A"/>
</g>
</svg>
