<svg width="37" height="38" viewBox="0 0 37 38" fill="none" xmlns="http://www.w3.org/2000/svg">
<g id="instagram">
<path id="Vector" d="M26.7325 8.91742C26.3666 8.91742 26.009 9.02592 25.7047 9.2292C25.4005 9.43248 25.1634 9.72141 25.0234 10.0595C24.8833 10.3975 24.8467 10.7695 24.9181 11.1283C24.9895 11.4872 25.1657 11.8168 25.4244 12.0756C25.6831 12.3343 26.0128 12.5105 26.3716 12.5819C26.7305 12.6533 27.1025 12.6166 27.4405 12.4766C27.7785 12.3366 28.0675 12.0995 28.2708 11.7952C28.474 11.491 28.5825 11.1333 28.5825 10.7674C28.5825 10.2768 28.3876 9.80621 28.0407 9.45927C27.6937 9.11233 27.2232 8.91742 26.7325 8.91742ZM33.8242 12.6483C33.7942 11.3691 33.5547 10.1036 33.115 8.902C32.723 7.87391 32.1129 6.94297 31.3267 6.17325C30.5633 5.38303 29.6302 4.77677 28.598 4.40034C27.3996 3.94733 26.1326 3.70228 24.8517 3.67575C23.2175 3.58325 22.6934 3.58325 18.5 3.58325C14.3067 3.58325 13.7825 3.58325 12.1484 3.67575C10.8675 3.70228 9.60053 3.94733 8.40212 4.40034C7.37179 4.78059 6.43948 5.38632 5.67337 6.17325C4.88316 6.93665 4.2769 7.86976 3.90046 8.902C3.44746 10.1004 3.20241 11.3674 3.17587 12.6483C3.08337 14.2824 3.08337 14.8066 3.08337 18.9999C3.08337 23.1933 3.08337 23.7174 3.17587 25.3516C3.20241 26.6325 3.44746 27.8994 3.90046 29.0978C4.2769 30.1301 4.88316 31.0632 5.67337 31.8266C6.43948 32.6135 7.37179 33.2192 8.40212 33.5995C9.60053 34.0525 10.8675 34.2976 12.1484 34.3241C13.7825 34.4166 14.3067 34.4166 18.5 34.4166C22.6934 34.4166 23.2175 34.4166 24.8517 34.3241C26.1326 34.2976 27.3996 34.0525 28.598 33.5995C29.6302 33.2231 30.5633 32.6168 31.3267 31.8266C32.1164 31.0597 32.7271 30.128 33.115 29.0978C33.5547 27.8963 33.7942 26.6307 33.8242 25.3516C33.8242 23.7174 33.9167 23.1933 33.9167 18.9999C33.9167 14.8066 33.9167 14.2824 33.8242 12.6483ZM31.0492 25.1666C31.038 26.1452 30.8607 27.1148 30.525 28.0341C30.2789 28.705 29.8835 29.3112 29.3688 29.807C28.8687 30.3165 28.2638 30.7111 27.5959 30.9633C26.6766 31.299 25.707 31.4762 24.7284 31.4874C23.1867 31.5645 22.6163 31.5799 18.5617 31.5799C14.5071 31.5799 13.9367 31.5799 12.395 31.4874C11.3789 31.5064 10.3671 31.35 9.40421 31.0249C8.76562 30.7599 8.18838 30.3663 7.70837 29.8687C7.19668 29.3734 6.80626 28.7667 6.56754 28.0958C6.19115 27.1633 5.98239 26.1717 5.95087 25.1666C5.95087 23.6249 5.85837 23.0545 5.85837 18.9999C5.85837 14.9453 5.85837 14.3749 5.95087 12.8333C5.95778 11.8328 6.14042 10.8413 6.49046 9.90409C6.76186 9.25336 7.17845 8.67331 7.70837 8.20825C8.17675 7.67818 8.75561 7.25719 9.40421 6.97492C10.3439 6.63582 11.3344 6.45858 12.3334 6.45075C13.875 6.45075 14.4455 6.35825 18.5 6.35825C22.5546 6.35825 23.125 6.35825 24.6667 6.45075C25.6453 6.46198 26.6149 6.63921 27.5342 6.97492C28.2348 7.23492 28.8636 7.65764 29.3688 8.20825C29.874 8.68182 30.2688 9.2608 30.525 9.90409C30.8677 10.8429 31.045 11.8339 31.0492 12.8333C31.1263 14.3749 31.1417 14.9453 31.1417 18.9999C31.1417 23.0545 31.1263 23.6249 31.0492 25.1666ZM18.5 11.0912C16.9365 11.0942 15.4089 11.5606 14.1104 12.4315C12.8118 13.3024 11.8005 14.5386 11.2043 15.984C10.6081 17.4294 10.4537 19.0191 10.7606 20.5523C11.0675 22.0854 11.8219 23.4932 12.9286 24.5977C14.0352 25.7022 15.4445 26.4539 16.9782 26.7578C18.5119 27.0617 20.1013 26.9042 21.5456 26.3052C22.9898 25.7061 24.2241 24.6924 25.0924 23.3922C25.9608 22.0919 26.4242 20.5635 26.4242 18.9999C26.4262 17.9595 26.2226 16.9289 25.8249 15.9674C25.4272 15.0059 24.8433 14.1326 24.1069 13.3976C23.3704 12.6626 22.496 12.0804 21.5337 11.6846C20.5715 11.2888 19.5405 11.0871 18.5 11.0912ZM18.5 24.1337C17.4847 24.1337 16.4921 23.8326 15.6479 23.2685C14.8036 22.7044 14.1456 21.9026 13.7571 20.9645C13.3685 20.0264 13.2668 18.9942 13.4649 17.9984C13.663 17.0025 14.152 16.0878 14.8699 15.3698C15.5879 14.6518 16.5026 14.1629 17.4985 13.9648C18.4943 13.7667 19.5266 13.8684 20.4646 14.257C21.4027 14.6455 22.2045 15.3035 22.7686 16.1478C23.3327 16.992 23.6338 17.9846 23.6338 18.9999C23.6338 19.6741 23.501 20.3417 23.243 20.9645C22.985 21.5874 22.6069 22.1533 22.1301 22.63C21.6534 23.1067 21.0875 23.4849 20.4646 23.7429C19.8418 24.0009 19.1742 24.1337 18.5 24.1337Z" fill="#FB469A"/>
</g>
</svg>
