<svg id="visual" viewBox="0 0 960 540" width="960" height="540" xmlns="http://www.w3.org/2000/svg" xmlns:xlink="http://www.w3.org/1999/xlink" version="1.1"><rect x="0" y="0" width="960" height="540" fill="#001220"></rect><path d="M0 357L22.8 357C45.7 357 91.3 357 137 359.3C182.7 361.7 228.3 366.3 274 372C319.7 377.7 365.3 384.3 411.2 384.8C457 385.3 503 379.7 548.8 369.8C594.7 360 640.3 346 686 350.3C731.7 354.7 777.3 377.3 823 379.2C868.7 381 914.3 362 937.2 352.5L960 343L960 541L937.2 541C914.3 541 868.7 541 823 541C777.3 541 731.7 541 686 541C640.3 541 594.7 541 548.8 541C503 541 457 541 411.2 541C365.3 541 319.7 541 274 541C228.3 541 182.7 541 137 541C91.3 541 45.7 541 22.8 541L0 541Z" fill="#ff0066"></path><path d="M0 384L22.8 384C45.7 384 91.3 384 137 389.7C182.7 395.3 228.3 406.7 274 404C319.7 401.3 365.3 384.7 411.2 374.3C457 364 503 360 548.8 370.5C594.7 381 640.3 406 686 415.3C731.7 424.7 777.3 418.3 823 417.3C868.7 416.3 914.3 420.7 937.2 422.8L960 425L960 541L937.2 541C914.3 541 868.7 541 823 541C777.3 541 731.7 541 686 541C640.3 541 594.7 541 548.8 541C503 541 457 541 411.2 541C365.3 541 319.7 541 274 541C228.3 541 182.7 541 137 541C91.3 541 45.7 541 22.8 541L0 541Z" fill="#da085d"></path><path d="M0 437L22.8 430C45.7 423 91.3 409 137 412.5C182.7 416 228.3 437 274 442.3C319.7 447.7 365.3 437.3 411.2 433.5C457 429.7 503 432.3 548.8 432.2C594.7 432 640.3 429 686 430.5C731.7 432 777.3 438 823 434.5C868.7 431 914.3 418 937.2 411.5L960 405L960 541L937.2 541C914.3 541 868.7 541 823 541C777.3 541 731.7 541 686 541C640.3 541 594.7 541 548.8 541C503 541 457 541 411.2 541C365.3 541 319.7 541 274 541C228.3 541 182.7 541 137 541C91.3 541 45.7 541 22.8 541L0 541Z" fill="#b50e52"></path><path d="M0 469L22.8 470.7C45.7 472.3 91.3 475.7 137 472C182.7 468.3 228.3 457.7 274 453.3C319.7 449 365.3 451 411.2 457.5C457 464 503 475 548.8 478.8C594.7 482.7 640.3 479.3 686 479.3C731.7 479.3 777.3 482.7 823 475.5C868.7 468.3 914.3 450.7 937.2 441.8L960 433L960 541L937.2 541C914.3 541 868.7 541 823 541C777.3 541 731.7 541 686 541C640.3 541 594.7 541 548.8 541C503 541 457 541 411.2 541C365.3 541 319.7 541 274 541C228.3 541 182.7 541 137 541C91.3 541 45.7 541 22.8 541L0 541Z" fill="#921146"></path><path d="M0 508L22.8 507.5C45.7 507 91.3 506 137 503.3C182.7 500.7 228.3 496.3 274 492C319.7 487.7 365.3 483.3 411.2 486.2C457 489 503 499 548.8 499.5C594.7 500 640.3 491 686 484.8C731.7 478.7 777.3 475.3 823 477.5C868.7 479.7 914.3 487.3 937.2 491.2L960 495L960 541L937.2 541C914.3 541 868.7 541 823 541C777.3 541 731.7 541 686 541C640.3 541 594.7 541 548.8 541C503 541 457 541 411.2 541C365.3 541 319.7 541 274 541C228.3 541 182.7 541 137 541C91.3 541 45.7 541 22.8 541L0 541Z" fill="#701139"></path></svg>