<svg id="visual" viewBox="0 0 960 540" width="960" height="540" xmlns="http://www.w3.org/2000/svg" xmlns:xlink="http://www.w3.org/1999/xlink" version="1.1"><rect x="0" y="0" width="960" height="540" fill="#001220"></rect><path d="M0 374L22.8 378.7C45.7 383.3 91.3 392.7 137 386C182.7 379.3 228.3 356.7 274 347.7C319.7 338.7 365.3 343.3 411.2 341C457 338.7 503 329.3 548.8 329.5C594.7 329.7 640.3 339.3 686 352C731.7 364.7 777.3 380.3 823 383.7C868.7 387 914.3 378 937.2 373.5L960 369L960 541L937.2 541C914.3 541 868.7 541 823 541C777.3 541 731.7 541 686 541C640.3 541 594.7 541 548.8 541C503 541 457 541 411.2 541C365.3 541 319.7 541 274 541C228.3 541 182.7 541 137 541C91.3 541 45.7 541 22.8 541L0 541Z" fill="#ff0066"></path><path d="M0 415L22.8 408.8C45.7 402.7 91.3 390.3 137 386.8C182.7 383.3 228.3 388.7 274 396.8C319.7 405 365.3 416 411.2 415.7C457 415.3 503 403.7 548.8 395.8C594.7 388 640.3 384 686 389C731.7 394 777.3 408 823 404.3C868.7 400.7 914.3 379.3 937.2 368.7L960 358L960 541L937.2 541C914.3 541 868.7 541 823 541C777.3 541 731.7 541 686 541C640.3 541 594.7 541 548.8 541C503 541 457 541 411.2 541C365.3 541 319.7 541 274 541C228.3 541 182.7 541 137 541C91.3 541 45.7 541 22.8 541L0 541Z" fill="#da085d"></path><path d="M0 416L22.8 417.5C45.7 419 91.3 422 137 419C182.7 416 228.3 407 274 411.7C319.7 416.3 365.3 434.7 411.2 435C457 435.3 503 417.7 548.8 410C594.7 402.3 640.3 404.7 686 410.3C731.7 416 777.3 425 823 425.7C868.7 426.3 914.3 418.7 937.2 414.8L960 411L960 541L937.2 541C914.3 541 868.7 541 823 541C777.3 541 731.7 541 686 541C640.3 541 594.7 541 548.8 541C503 541 457 541 411.2 541C365.3 541 319.7 541 274 541C228.3 541 182.7 541 137 541C91.3 541 45.7 541 22.8 541L0 541Z" fill="#b50e52"></path><path d="M0 445L22.8 450C45.7 455 91.3 465 137 467.7C182.7 470.3 228.3 465.7 274 466C319.7 466.3 365.3 471.7 411.2 472C457 472.3 503 467.7 548.8 464.8C594.7 462 640.3 461 686 462.3C731.7 463.7 777.3 467.3 823 469.8C868.7 472.3 914.3 473.7 937.2 474.3L960 475L960 541L937.2 541C914.3 541 868.7 541 823 541C777.3 541 731.7 541 686 541C640.3 541 594.7 541 548.8 541C503 541 457 541 411.2 541C365.3 541 319.7 541 274 541C228.3 541 182.7 541 137 541C91.3 541 45.7 541 22.8 541L0 541Z" fill="#921146"></path><path d="M0 475L22.8 476.3C45.7 477.7 91.3 480.3 137 483.3C182.7 486.3 228.3 489.7 274 494.8C319.7 500 365.3 507 411.2 505.2C457 503.3 503 492.7 548.8 489.7C594.7 486.7 640.3 491.3 686 496.2C731.7 501 777.3 506 823 504.8C868.7 503.7 914.3 496.3 937.2 492.7L960 489L960 541L937.2 541C914.3 541 868.7 541 823 541C777.3 541 731.7 541 686 541C640.3 541 594.7 541 548.8 541C503 541 457 541 411.2 541C365.3 541 319.7 541 274 541C228.3 541 182.7 541 137 541C91.3 541 45.7 541 22.8 541L0 541Z" fill="#701139"></path></svg>